%TF.GenerationSoftware,KiCad,Pcbnew,(6.0.6)*%
%TF.CreationDate,2022-06-29T20:31:09-07:00*%
%TF.ProjectId,project_brave_heart,70726f6a-6563-4745-9f62-726176655f68,rev?*%
%TF.SameCoordinates,Original*%
%TF.FileFunction,Legend,Top*%
%TF.FilePolarity,Positive*%
%FSLAX46Y46*%
G04 Gerber Fmt 4.6, Leading zero omitted, Abs format (unit mm)*
G04 Created by KiCad (PCBNEW (6.0.6)) date 2022-06-29 20:31:09*
%MOMM*%
%LPD*%
G01*
G04 APERTURE LIST*
%ADD10C,0.150000*%
%ADD11C,0.250000*%
%ADD12C,0.120000*%
G04 APERTURE END LIST*
D10*
X149214761Y-78132380D02*
X149833809Y-78132380D01*
X149500476Y-78513333D01*
X149643333Y-78513333D01*
X149738571Y-78560952D01*
X149786190Y-78608571D01*
X149833809Y-78703809D01*
X149833809Y-78941904D01*
X149786190Y-79037142D01*
X149738571Y-79084761D01*
X149643333Y-79132380D01*
X149357619Y-79132380D01*
X149262380Y-79084761D01*
X149214761Y-79037142D01*
X150119523Y-78132380D02*
X150452857Y-79132380D01*
X150786190Y-78132380D01*
X151024285Y-78132380D02*
X151643333Y-78132380D01*
X151310000Y-78513333D01*
X151452857Y-78513333D01*
X151548095Y-78560952D01*
X151595714Y-78608571D01*
X151643333Y-78703809D01*
X151643333Y-78941904D01*
X151595714Y-79037142D01*
X151548095Y-79084761D01*
X151452857Y-79132380D01*
X151167142Y-79132380D01*
X151071904Y-79084761D01*
X151024285Y-79037142D01*
X151833809Y-79227619D02*
X152595714Y-79227619D01*
X152833809Y-78608571D02*
X153167142Y-78608571D01*
X153310000Y-79132380D02*
X152833809Y-79132380D01*
X152833809Y-78132380D01*
X153310000Y-78132380D01*
X153738571Y-79132380D02*
X153738571Y-78132380D01*
X154310000Y-79132380D01*
X154310000Y-78132380D01*
X149801904Y-91197380D02*
X149468571Y-90721190D01*
X149230476Y-91197380D02*
X149230476Y-90197380D01*
X149611428Y-90197380D01*
X149706666Y-90245000D01*
X149754285Y-90292619D01*
X149801904Y-90387857D01*
X149801904Y-90530714D01*
X149754285Y-90625952D01*
X149706666Y-90673571D01*
X149611428Y-90721190D01*
X149230476Y-90721190D01*
X150230476Y-90197380D02*
X150230476Y-91006904D01*
X150278095Y-91102142D01*
X150325714Y-91149761D01*
X150420952Y-91197380D01*
X150611428Y-91197380D01*
X150706666Y-91149761D01*
X150754285Y-91102142D01*
X150801904Y-91006904D01*
X150801904Y-90197380D01*
X151278095Y-91197380D02*
X151278095Y-90197380D01*
X151849523Y-91197380D01*
X151849523Y-90197380D01*
X99184523Y-132583571D02*
X98851190Y-132583571D01*
X98851190Y-133107380D02*
X98851190Y-132107380D01*
X99327380Y-132107380D01*
X99708333Y-133107380D02*
X99708333Y-132107380D01*
X100041666Y-132821666D01*
X100375000Y-132107380D01*
X100375000Y-133107380D01*
X100851190Y-133107380D02*
X100851190Y-132107380D01*
X101327380Y-133107380D02*
X101327380Y-132107380D01*
X101898809Y-133107380D01*
X101898809Y-132107380D01*
X134673333Y-92816666D02*
X135149523Y-92816666D01*
X134578095Y-93102380D02*
X134911428Y-92102380D01*
X135244761Y-93102380D01*
X135578095Y-92102380D02*
X135578095Y-92911904D01*
X135625714Y-93007142D01*
X135673333Y-93054761D01*
X135768571Y-93102380D01*
X135959047Y-93102380D01*
X136054285Y-93054761D01*
X136101904Y-93007142D01*
X136149523Y-92911904D01*
X136149523Y-92102380D01*
X136625714Y-93102380D02*
X136625714Y-92102380D01*
X136863809Y-92102380D01*
X137006666Y-92150000D01*
X137101904Y-92245238D01*
X137149523Y-92340476D01*
X137197142Y-92530952D01*
X137197142Y-92673809D01*
X137149523Y-92864285D01*
X137101904Y-92959523D01*
X137006666Y-93054761D01*
X136863809Y-93102380D01*
X136625714Y-93102380D01*
X137625714Y-93102380D02*
X137625714Y-92102380D01*
X138292380Y-92102380D02*
X138482857Y-92102380D01*
X138578095Y-92150000D01*
X138673333Y-92245238D01*
X138720952Y-92435714D01*
X138720952Y-92769047D01*
X138673333Y-92959523D01*
X138578095Y-93054761D01*
X138482857Y-93102380D01*
X138292380Y-93102380D01*
X138197142Y-93054761D01*
X138101904Y-92959523D01*
X138054285Y-92769047D01*
X138054285Y-92435714D01*
X138101904Y-92245238D01*
X138197142Y-92150000D01*
X138292380Y-92102380D01*
X139911428Y-93102380D02*
X139911428Y-92102380D01*
X140387619Y-93102380D02*
X140387619Y-92102380D01*
X140959047Y-93102380D01*
X140959047Y-92102380D01*
X117448809Y-122312380D02*
X117448809Y-121312380D01*
X117877380Y-121407619D02*
X117925000Y-121360000D01*
X118020238Y-121312380D01*
X118258333Y-121312380D01*
X118353571Y-121360000D01*
X118401190Y-121407619D01*
X118448809Y-121502857D01*
X118448809Y-121598095D01*
X118401190Y-121740952D01*
X117829761Y-122312380D01*
X118448809Y-122312380D01*
X119448809Y-122217142D02*
X119401190Y-122264761D01*
X119258333Y-122312380D01*
X119163095Y-122312380D01*
X119020238Y-122264761D01*
X118925000Y-122169523D01*
X118877380Y-122074285D01*
X118829761Y-121883809D01*
X118829761Y-121740952D01*
X118877380Y-121550476D01*
X118925000Y-121455238D01*
X119020238Y-121360000D01*
X119163095Y-121312380D01*
X119258333Y-121312380D01*
X119401190Y-121360000D01*
X119448809Y-121407619D01*
X120448809Y-122217142D02*
X120401190Y-122264761D01*
X120258333Y-122312380D01*
X120163095Y-122312380D01*
X120020238Y-122264761D01*
X119925000Y-122169523D01*
X119877380Y-122074285D01*
X119829761Y-121883809D01*
X119829761Y-121740952D01*
X119877380Y-121550476D01*
X119925000Y-121455238D01*
X120020238Y-121360000D01*
X120163095Y-121312380D01*
X120258333Y-121312380D01*
X120401190Y-121360000D01*
X120448809Y-121407619D01*
X120877380Y-122312380D02*
X120877380Y-121312380D01*
X121448809Y-122312380D02*
X121020238Y-121740952D01*
X121448809Y-121312380D02*
X120877380Y-121883809D01*
X117591666Y-119772380D02*
X117591666Y-118772380D01*
X118020238Y-118867619D02*
X118067857Y-118820000D01*
X118163095Y-118772380D01*
X118401190Y-118772380D01*
X118496428Y-118820000D01*
X118544047Y-118867619D01*
X118591666Y-118962857D01*
X118591666Y-119058095D01*
X118544047Y-119200952D01*
X117972619Y-119772380D01*
X118591666Y-119772380D01*
X119591666Y-119677142D02*
X119544047Y-119724761D01*
X119401190Y-119772380D01*
X119305952Y-119772380D01*
X119163095Y-119724761D01*
X119067857Y-119629523D01*
X119020238Y-119534285D01*
X118972619Y-119343809D01*
X118972619Y-119200952D01*
X119020238Y-119010476D01*
X119067857Y-118915238D01*
X119163095Y-118820000D01*
X119305952Y-118772380D01*
X119401190Y-118772380D01*
X119544047Y-118820000D01*
X119591666Y-118867619D01*
X119877380Y-118772380D02*
X120448809Y-118772380D01*
X120163095Y-119772380D02*
X120163095Y-118772380D01*
X120686904Y-118772380D02*
X121353571Y-119772380D01*
X121353571Y-118772380D02*
X120686904Y-119772380D01*
X149778095Y-87705000D02*
X149682857Y-87657380D01*
X149540000Y-87657380D01*
X149397142Y-87705000D01*
X149301904Y-87800238D01*
X149254285Y-87895476D01*
X149206666Y-88085952D01*
X149206666Y-88228809D01*
X149254285Y-88419285D01*
X149301904Y-88514523D01*
X149397142Y-88609761D01*
X149540000Y-88657380D01*
X149635238Y-88657380D01*
X149778095Y-88609761D01*
X149825714Y-88562142D01*
X149825714Y-88228809D01*
X149635238Y-88228809D01*
X150254285Y-88657380D02*
X150254285Y-87657380D01*
X150825714Y-88657380D01*
X150825714Y-87657380D01*
X151301904Y-88657380D02*
X151301904Y-87657380D01*
X151540000Y-87657380D01*
X151682857Y-87705000D01*
X151778095Y-87800238D01*
X151825714Y-87895476D01*
X151873333Y-88085952D01*
X151873333Y-88228809D01*
X151825714Y-88419285D01*
X151778095Y-88514523D01*
X151682857Y-88609761D01*
X151540000Y-88657380D01*
X151301904Y-88657380D01*
X149778095Y-85165000D02*
X149682857Y-85117380D01*
X149540000Y-85117380D01*
X149397142Y-85165000D01*
X149301904Y-85260238D01*
X149254285Y-85355476D01*
X149206666Y-85545952D01*
X149206666Y-85688809D01*
X149254285Y-85879285D01*
X149301904Y-85974523D01*
X149397142Y-86069761D01*
X149540000Y-86117380D01*
X149635238Y-86117380D01*
X149778095Y-86069761D01*
X149825714Y-86022142D01*
X149825714Y-85688809D01*
X149635238Y-85688809D01*
X150254285Y-86117380D02*
X150254285Y-85117380D01*
X150825714Y-86117380D01*
X150825714Y-85117380D01*
X151301904Y-86117380D02*
X151301904Y-85117380D01*
X151540000Y-85117380D01*
X151682857Y-85165000D01*
X151778095Y-85260238D01*
X151825714Y-85355476D01*
X151873333Y-85545952D01*
X151873333Y-85688809D01*
X151825714Y-85879285D01*
X151778095Y-85974523D01*
X151682857Y-86069761D01*
X151540000Y-86117380D01*
X151301904Y-86117380D01*
X149206666Y-82577380D02*
X149540000Y-83577380D01*
X149873333Y-82577380D01*
X150206666Y-83577380D02*
X150206666Y-82577380D01*
X150444761Y-82577380D01*
X150587619Y-82625000D01*
X150682857Y-82720238D01*
X150730476Y-82815476D01*
X150778095Y-83005952D01*
X150778095Y-83148809D01*
X150730476Y-83339285D01*
X150682857Y-83434523D01*
X150587619Y-83529761D01*
X150444761Y-83577380D01*
X150206666Y-83577380D01*
X151206666Y-83577380D02*
X151206666Y-82577380D01*
X151444761Y-82577380D01*
X151587619Y-82625000D01*
X151682857Y-82720238D01*
X151730476Y-82815476D01*
X151778095Y-83005952D01*
X151778095Y-83148809D01*
X151730476Y-83339285D01*
X151682857Y-83434523D01*
X151587619Y-83529761D01*
X151444761Y-83577380D01*
X151206666Y-83577380D01*
X149206666Y-80037380D02*
X149540000Y-81037380D01*
X149873333Y-80037380D01*
X150206666Y-81037380D02*
X150206666Y-80037380D01*
X150444761Y-80037380D01*
X150587619Y-80085000D01*
X150682857Y-80180238D01*
X150730476Y-80275476D01*
X150778095Y-80465952D01*
X150778095Y-80608809D01*
X150730476Y-80799285D01*
X150682857Y-80894523D01*
X150587619Y-80989761D01*
X150444761Y-81037380D01*
X150206666Y-81037380D01*
X151206666Y-81037380D02*
X151206666Y-80037380D01*
X151444761Y-80037380D01*
X151587619Y-80085000D01*
X151682857Y-80180238D01*
X151730476Y-80275476D01*
X151778095Y-80465952D01*
X151778095Y-80608809D01*
X151730476Y-80799285D01*
X151682857Y-80894523D01*
X151587619Y-80989761D01*
X151444761Y-81037380D01*
X151206666Y-81037380D01*
X139695595Y-86031428D02*
X140457500Y-86031428D01*
X140076547Y-86412380D02*
X140076547Y-85650476D01*
X140838452Y-85412380D02*
X141457500Y-85412380D01*
X141124166Y-85793333D01*
X141267023Y-85793333D01*
X141362261Y-85840952D01*
X141409880Y-85888571D01*
X141457500Y-85983809D01*
X141457500Y-86221904D01*
X141409880Y-86317142D01*
X141362261Y-86364761D01*
X141267023Y-86412380D01*
X140981309Y-86412380D01*
X140886071Y-86364761D01*
X140838452Y-86317142D01*
X141743214Y-85412380D02*
X142076547Y-86412380D01*
X142409880Y-85412380D01*
X142647976Y-85412380D02*
X143267023Y-85412380D01*
X142933690Y-85793333D01*
X143076547Y-85793333D01*
X143171785Y-85840952D01*
X143219404Y-85888571D01*
X143267023Y-85983809D01*
X143267023Y-86221904D01*
X143219404Y-86317142D01*
X143171785Y-86364761D01*
X143076547Y-86412380D01*
X142790833Y-86412380D01*
X142695595Y-86364761D01*
X142647976Y-86317142D01*
X141171785Y-87070000D02*
X141076547Y-87022380D01*
X140933690Y-87022380D01*
X140790833Y-87070000D01*
X140695595Y-87165238D01*
X140647976Y-87260476D01*
X140600357Y-87450952D01*
X140600357Y-87593809D01*
X140647976Y-87784285D01*
X140695595Y-87879523D01*
X140790833Y-87974761D01*
X140933690Y-88022380D01*
X141028928Y-88022380D01*
X141171785Y-87974761D01*
X141219404Y-87927142D01*
X141219404Y-87593809D01*
X141028928Y-87593809D01*
X141647976Y-88022380D02*
X141647976Y-87022380D01*
X142219404Y-88022380D01*
X142219404Y-87022380D01*
X142695595Y-88022380D02*
X142695595Y-87022380D01*
X142933690Y-87022380D01*
X143076547Y-87070000D01*
X143171785Y-87165238D01*
X143219404Y-87260476D01*
X143267023Y-87450952D01*
X143267023Y-87593809D01*
X143219404Y-87784285D01*
X143171785Y-87879523D01*
X143076547Y-87974761D01*
X142933690Y-88022380D01*
X142695595Y-88022380D01*
X139838452Y-89346666D02*
X140314642Y-89346666D01*
X139743214Y-89632380D02*
X140076547Y-88632380D01*
X140409880Y-89632380D01*
X140743214Y-89632380D02*
X140743214Y-88632380D01*
X140981309Y-88632380D01*
X141124166Y-88680000D01*
X141219404Y-88775238D01*
X141267023Y-88870476D01*
X141314642Y-89060952D01*
X141314642Y-89203809D01*
X141267023Y-89394285D01*
X141219404Y-89489523D01*
X141124166Y-89584761D01*
X140981309Y-89632380D01*
X140743214Y-89632380D01*
X142314642Y-89537142D02*
X142267023Y-89584761D01*
X142124166Y-89632380D01*
X142028928Y-89632380D01*
X141886071Y-89584761D01*
X141790833Y-89489523D01*
X141743214Y-89394285D01*
X141695595Y-89203809D01*
X141695595Y-89060952D01*
X141743214Y-88870476D01*
X141790833Y-88775238D01*
X141886071Y-88680000D01*
X142028928Y-88632380D01*
X142124166Y-88632380D01*
X142267023Y-88680000D01*
X142314642Y-88727619D01*
X142933690Y-88632380D02*
X143028928Y-88632380D01*
X143124166Y-88680000D01*
X143171785Y-88727619D01*
X143219404Y-88822857D01*
X143267023Y-89013333D01*
X143267023Y-89251428D01*
X143219404Y-89441904D01*
X143171785Y-89537142D01*
X143124166Y-89584761D01*
X143028928Y-89632380D01*
X142933690Y-89632380D01*
X142838452Y-89584761D01*
X142790833Y-89537142D01*
X142743214Y-89441904D01*
X142695595Y-89251428D01*
X142695595Y-89013333D01*
X142743214Y-88822857D01*
X142790833Y-88727619D01*
X142838452Y-88680000D01*
X142933690Y-88632380D01*
X139695595Y-78411428D02*
X140457500Y-78411428D01*
X140076547Y-78792380D02*
X140076547Y-78030476D01*
X140838452Y-77792380D02*
X141457500Y-77792380D01*
X141124166Y-78173333D01*
X141267023Y-78173333D01*
X141362261Y-78220952D01*
X141409880Y-78268571D01*
X141457500Y-78363809D01*
X141457500Y-78601904D01*
X141409880Y-78697142D01*
X141362261Y-78744761D01*
X141267023Y-78792380D01*
X140981309Y-78792380D01*
X140886071Y-78744761D01*
X140838452Y-78697142D01*
X141743214Y-77792380D02*
X142076547Y-78792380D01*
X142409880Y-77792380D01*
X142647976Y-77792380D02*
X143267023Y-77792380D01*
X142933690Y-78173333D01*
X143076547Y-78173333D01*
X143171785Y-78220952D01*
X143219404Y-78268571D01*
X143267023Y-78363809D01*
X143267023Y-78601904D01*
X143219404Y-78697142D01*
X143171785Y-78744761D01*
X143076547Y-78792380D01*
X142790833Y-78792380D01*
X142695595Y-78744761D01*
X142647976Y-78697142D01*
X141171785Y-79450000D02*
X141076547Y-79402380D01*
X140933690Y-79402380D01*
X140790833Y-79450000D01*
X140695595Y-79545238D01*
X140647976Y-79640476D01*
X140600357Y-79830952D01*
X140600357Y-79973809D01*
X140647976Y-80164285D01*
X140695595Y-80259523D01*
X140790833Y-80354761D01*
X140933690Y-80402380D01*
X141028928Y-80402380D01*
X141171785Y-80354761D01*
X141219404Y-80307142D01*
X141219404Y-79973809D01*
X141028928Y-79973809D01*
X141647976Y-80402380D02*
X141647976Y-79402380D01*
X142219404Y-80402380D01*
X142219404Y-79402380D01*
X142695595Y-80402380D02*
X142695595Y-79402380D01*
X142933690Y-79402380D01*
X143076547Y-79450000D01*
X143171785Y-79545238D01*
X143219404Y-79640476D01*
X143267023Y-79830952D01*
X143267023Y-79973809D01*
X143219404Y-80164285D01*
X143171785Y-80259523D01*
X143076547Y-80354761D01*
X142933690Y-80402380D01*
X142695595Y-80402380D01*
X139838452Y-81726666D02*
X140314642Y-81726666D01*
X139743214Y-82012380D02*
X140076547Y-81012380D01*
X140409880Y-82012380D01*
X140743214Y-82012380D02*
X140743214Y-81012380D01*
X140981309Y-81012380D01*
X141124166Y-81060000D01*
X141219404Y-81155238D01*
X141267023Y-81250476D01*
X141314642Y-81440952D01*
X141314642Y-81583809D01*
X141267023Y-81774285D01*
X141219404Y-81869523D01*
X141124166Y-81964761D01*
X140981309Y-82012380D01*
X140743214Y-82012380D01*
X142314642Y-81917142D02*
X142267023Y-81964761D01*
X142124166Y-82012380D01*
X142028928Y-82012380D01*
X141886071Y-81964761D01*
X141790833Y-81869523D01*
X141743214Y-81774285D01*
X141695595Y-81583809D01*
X141695595Y-81440952D01*
X141743214Y-81250476D01*
X141790833Y-81155238D01*
X141886071Y-81060000D01*
X142028928Y-81012380D01*
X142124166Y-81012380D01*
X142267023Y-81060000D01*
X142314642Y-81107619D01*
X143267023Y-82012380D02*
X142695595Y-82012380D01*
X142981309Y-82012380D02*
X142981309Y-81012380D01*
X142886071Y-81155238D01*
X142790833Y-81250476D01*
X142695595Y-81298095D01*
X158247380Y-71432857D02*
X159247380Y-71099523D01*
X158247380Y-70766190D01*
X158723571Y-70099523D02*
X158771190Y-69956666D01*
X158818809Y-69909047D01*
X158914047Y-69861428D01*
X159056904Y-69861428D01*
X159152142Y-69909047D01*
X159199761Y-69956666D01*
X159247380Y-70051904D01*
X159247380Y-70432857D01*
X158247380Y-70432857D01*
X158247380Y-70099523D01*
X158295000Y-70004285D01*
X158342619Y-69956666D01*
X158437857Y-69909047D01*
X158533095Y-69909047D01*
X158628333Y-69956666D01*
X158675952Y-70004285D01*
X158723571Y-70099523D01*
X158723571Y-70432857D01*
X158961666Y-69480476D02*
X158961666Y-69004285D01*
X159247380Y-69575714D02*
X158247380Y-69242380D01*
X159247380Y-68909047D01*
X158247380Y-68718571D02*
X158247380Y-68147142D01*
X159247380Y-68432857D02*
X158247380Y-68432857D01*
X165915000Y-70551904D02*
X165867380Y-70647142D01*
X165867380Y-70790000D01*
X165915000Y-70932857D01*
X166010238Y-71028095D01*
X166105476Y-71075714D01*
X166295952Y-71123333D01*
X166438809Y-71123333D01*
X166629285Y-71075714D01*
X166724523Y-71028095D01*
X166819761Y-70932857D01*
X166867380Y-70790000D01*
X166867380Y-70694761D01*
X166819761Y-70551904D01*
X166772142Y-70504285D01*
X166438809Y-70504285D01*
X166438809Y-70694761D01*
X166867380Y-70075714D02*
X165867380Y-70075714D01*
X166867380Y-69504285D01*
X165867380Y-69504285D01*
X166867380Y-69028095D02*
X165867380Y-69028095D01*
X165867380Y-68790000D01*
X165915000Y-68647142D01*
X166010238Y-68551904D01*
X166105476Y-68504285D01*
X166295952Y-68456666D01*
X166438809Y-68456666D01*
X166629285Y-68504285D01*
X166724523Y-68551904D01*
X166819761Y-68647142D01*
X166867380Y-68790000D01*
X166867380Y-69028095D01*
X170677380Y-89752380D02*
X169677380Y-89752380D01*
X169677380Y-89371428D01*
X169725000Y-89276190D01*
X169772619Y-89228571D01*
X169867857Y-89180952D01*
X170010714Y-89180952D01*
X170105952Y-89228571D01*
X170153571Y-89276190D01*
X170201190Y-89371428D01*
X170201190Y-89752380D01*
X169677380Y-88561904D02*
X169677380Y-88371428D01*
X169725000Y-88276190D01*
X169820238Y-88180952D01*
X170010714Y-88133333D01*
X170344047Y-88133333D01*
X170534523Y-88180952D01*
X170629761Y-88276190D01*
X170677380Y-88371428D01*
X170677380Y-88561904D01*
X170629761Y-88657142D01*
X170534523Y-88752380D01*
X170344047Y-88800000D01*
X170010714Y-88800000D01*
X169820238Y-88752380D01*
X169725000Y-88657142D01*
X169677380Y-88561904D01*
X169677380Y-87800000D02*
X170677380Y-87561904D01*
X169963095Y-87371428D01*
X170677380Y-87180952D01*
X169677380Y-86942857D01*
X170153571Y-86561904D02*
X170153571Y-86228571D01*
X170677380Y-86085714D02*
X170677380Y-86561904D01*
X169677380Y-86561904D01*
X169677380Y-86085714D01*
X170677380Y-85085714D02*
X170201190Y-85419047D01*
X170677380Y-85657142D02*
X169677380Y-85657142D01*
X169677380Y-85276190D01*
X169725000Y-85180952D01*
X169772619Y-85133333D01*
X169867857Y-85085714D01*
X170010714Y-85085714D01*
X170105952Y-85133333D01*
X170153571Y-85180952D01*
X170201190Y-85276190D01*
X170201190Y-85657142D01*
X170677380Y-83895238D02*
X169677380Y-83895238D01*
X170677380Y-83419047D02*
X169677380Y-83419047D01*
X170677380Y-82847619D01*
X169677380Y-82847619D01*
X170677380Y-106452857D02*
X169677380Y-106452857D01*
X169677380Y-106214761D01*
X169725000Y-106071904D01*
X169820238Y-105976666D01*
X169915476Y-105929047D01*
X170105952Y-105881428D01*
X170248809Y-105881428D01*
X170439285Y-105929047D01*
X170534523Y-105976666D01*
X170629761Y-106071904D01*
X170677380Y-106214761D01*
X170677380Y-106452857D01*
X170582142Y-104881428D02*
X170629761Y-104929047D01*
X170677380Y-105071904D01*
X170677380Y-105167142D01*
X170629761Y-105310000D01*
X170534523Y-105405238D01*
X170439285Y-105452857D01*
X170248809Y-105500476D01*
X170105952Y-105500476D01*
X169915476Y-105452857D01*
X169820238Y-105405238D01*
X169725000Y-105310000D01*
X169677380Y-105167142D01*
X169677380Y-105071904D01*
X169725000Y-104929047D01*
X169772619Y-104881428D01*
X170677380Y-103690952D02*
X169677380Y-103690952D01*
X170391666Y-103357619D01*
X169677380Y-103024285D01*
X170677380Y-103024285D01*
X169677380Y-102357619D02*
X169677380Y-102167142D01*
X169725000Y-102071904D01*
X169820238Y-101976666D01*
X170010714Y-101929047D01*
X170344047Y-101929047D01*
X170534523Y-101976666D01*
X170629761Y-102071904D01*
X170677380Y-102167142D01*
X170677380Y-102357619D01*
X170629761Y-102452857D01*
X170534523Y-102548095D01*
X170344047Y-102595714D01*
X170010714Y-102595714D01*
X169820238Y-102548095D01*
X169725000Y-102452857D01*
X169677380Y-102357619D01*
X169677380Y-101643333D02*
X169677380Y-101071904D01*
X170677380Y-101357619D02*
X169677380Y-101357619D01*
X169677380Y-100548095D02*
X169677380Y-100357619D01*
X169725000Y-100262380D01*
X169820238Y-100167142D01*
X170010714Y-100119523D01*
X170344047Y-100119523D01*
X170534523Y-100167142D01*
X170629761Y-100262380D01*
X170677380Y-100357619D01*
X170677380Y-100548095D01*
X170629761Y-100643333D01*
X170534523Y-100738571D01*
X170344047Y-100786190D01*
X170010714Y-100786190D01*
X169820238Y-100738571D01*
X169725000Y-100643333D01*
X169677380Y-100548095D01*
X170677380Y-99119523D02*
X170201190Y-99452857D01*
X170677380Y-99690952D02*
X169677380Y-99690952D01*
X169677380Y-99310000D01*
X169725000Y-99214761D01*
X169772619Y-99167142D01*
X169867857Y-99119523D01*
X170010714Y-99119523D01*
X170105952Y-99167142D01*
X170153571Y-99214761D01*
X170201190Y-99310000D01*
X170201190Y-99690952D01*
X173963571Y-121479047D02*
X173963571Y-122240952D01*
X173535000Y-90871904D02*
X173487380Y-90967142D01*
X173487380Y-91110000D01*
X173535000Y-91252857D01*
X173630238Y-91348095D01*
X173725476Y-91395714D01*
X173915952Y-91443333D01*
X174058809Y-91443333D01*
X174249285Y-91395714D01*
X174344523Y-91348095D01*
X174439761Y-91252857D01*
X174487380Y-91110000D01*
X174487380Y-91014761D01*
X174439761Y-90871904D01*
X174392142Y-90824285D01*
X174058809Y-90824285D01*
X174058809Y-91014761D01*
X174487380Y-90395714D02*
X173487380Y-90395714D01*
X174487380Y-89824285D01*
X173487380Y-89824285D01*
X174487380Y-89348095D02*
X173487380Y-89348095D01*
X173487380Y-89110000D01*
X173535000Y-88967142D01*
X173630238Y-88871904D01*
X173725476Y-88824285D01*
X173915952Y-88776666D01*
X174058809Y-88776666D01*
X174249285Y-88824285D01*
X174344523Y-88871904D01*
X174439761Y-88967142D01*
X174487380Y-89110000D01*
X174487380Y-89348095D01*
X170391666Y-129503333D02*
X170391666Y-129027142D01*
X170677380Y-129598571D02*
X169677380Y-129265238D01*
X170677380Y-128931904D01*
X169677380Y-128598571D02*
X170486904Y-128598571D01*
X170582142Y-128550952D01*
X170629761Y-128503333D01*
X170677380Y-128408095D01*
X170677380Y-128217619D01*
X170629761Y-128122380D01*
X170582142Y-128074761D01*
X170486904Y-128027142D01*
X169677380Y-128027142D01*
X170677380Y-127550952D02*
X169677380Y-127550952D01*
X169677380Y-127312857D01*
X169725000Y-127170000D01*
X169820238Y-127074761D01*
X169915476Y-127027142D01*
X170105952Y-126979523D01*
X170248809Y-126979523D01*
X170439285Y-127027142D01*
X170534523Y-127074761D01*
X170629761Y-127170000D01*
X170677380Y-127312857D01*
X170677380Y-127550952D01*
X170677380Y-126550952D02*
X169677380Y-126550952D01*
X169677380Y-125884285D02*
X169677380Y-125693809D01*
X169725000Y-125598571D01*
X169820238Y-125503333D01*
X170010714Y-125455714D01*
X170344047Y-125455714D01*
X170534523Y-125503333D01*
X170629761Y-125598571D01*
X170677380Y-125693809D01*
X170677380Y-125884285D01*
X170629761Y-125979523D01*
X170534523Y-126074761D01*
X170344047Y-126122380D01*
X170010714Y-126122380D01*
X169820238Y-126074761D01*
X169725000Y-125979523D01*
X169677380Y-125884285D01*
X169677380Y-124074761D02*
X169677380Y-123884285D01*
X169725000Y-123789047D01*
X169820238Y-123693809D01*
X170010714Y-123646190D01*
X170344047Y-123646190D01*
X170534523Y-123693809D01*
X170629761Y-123789047D01*
X170677380Y-123884285D01*
X170677380Y-124074761D01*
X170629761Y-124170000D01*
X170534523Y-124265238D01*
X170344047Y-124312857D01*
X170010714Y-124312857D01*
X169820238Y-124265238D01*
X169725000Y-124170000D01*
X169677380Y-124074761D01*
X169677380Y-123217619D02*
X170486904Y-123217619D01*
X170582142Y-123170000D01*
X170629761Y-123122380D01*
X170677380Y-123027142D01*
X170677380Y-122836666D01*
X170629761Y-122741428D01*
X170582142Y-122693809D01*
X170486904Y-122646190D01*
X169677380Y-122646190D01*
X169677380Y-122312857D02*
X169677380Y-121741428D01*
X170677380Y-122027142D02*
X169677380Y-122027142D01*
X126238095Y-129040000D02*
X126142857Y-128992380D01*
X126000000Y-128992380D01*
X125857142Y-129040000D01*
X125761904Y-129135238D01*
X125714285Y-129230476D01*
X125666666Y-129420952D01*
X125666666Y-129563809D01*
X125714285Y-129754285D01*
X125761904Y-129849523D01*
X125857142Y-129944761D01*
X126000000Y-129992380D01*
X126095238Y-129992380D01*
X126238095Y-129944761D01*
X126285714Y-129897142D01*
X126285714Y-129563809D01*
X126095238Y-129563809D01*
X126714285Y-129992380D02*
X126714285Y-128992380D01*
X127285714Y-129992380D01*
X127285714Y-128992380D01*
X127761904Y-129992380D02*
X127761904Y-128992380D01*
X128000000Y-128992380D01*
X128142857Y-129040000D01*
X128238095Y-129135238D01*
X128285714Y-129230476D01*
X128333333Y-129420952D01*
X128333333Y-129563809D01*
X128285714Y-129754285D01*
X128238095Y-129849523D01*
X128142857Y-129944761D01*
X128000000Y-129992380D01*
X127761904Y-129992380D01*
X173582619Y-85998095D02*
X173535000Y-85950476D01*
X173487380Y-85855238D01*
X173487380Y-85617142D01*
X173535000Y-85521904D01*
X173582619Y-85474285D01*
X173677857Y-85426666D01*
X173773095Y-85426666D01*
X173915952Y-85474285D01*
X174487380Y-86045714D01*
X174487380Y-85426666D01*
X173487380Y-85140952D02*
X174487380Y-84807619D01*
X173487380Y-84474285D01*
X174106428Y-84140952D02*
X174106428Y-83379047D01*
X173487380Y-82426666D02*
X173487380Y-82902857D01*
X173963571Y-82950476D01*
X173915952Y-82902857D01*
X173868333Y-82807619D01*
X173868333Y-82569523D01*
X173915952Y-82474285D01*
X173963571Y-82426666D01*
X174058809Y-82379047D01*
X174296904Y-82379047D01*
X174392142Y-82426666D01*
X174439761Y-82474285D01*
X174487380Y-82569523D01*
X174487380Y-82807619D01*
X174439761Y-82902857D01*
X174392142Y-82950476D01*
X173487380Y-82093333D02*
X174487380Y-81760000D01*
X173487380Y-81426666D01*
X117618095Y-129611428D02*
X118380000Y-129611428D01*
X117999047Y-129992380D02*
X117999047Y-129230476D01*
X118760952Y-128992380D02*
X119380000Y-128992380D01*
X119046666Y-129373333D01*
X119189523Y-129373333D01*
X119284761Y-129420952D01*
X119332380Y-129468571D01*
X119380000Y-129563809D01*
X119380000Y-129801904D01*
X119332380Y-129897142D01*
X119284761Y-129944761D01*
X119189523Y-129992380D01*
X118903809Y-129992380D01*
X118808571Y-129944761D01*
X118760952Y-129897142D01*
X119665714Y-128992380D02*
X119999047Y-129992380D01*
X120332380Y-128992380D01*
X120570476Y-128992380D02*
X121189523Y-128992380D01*
X120856190Y-129373333D01*
X120999047Y-129373333D01*
X121094285Y-129420952D01*
X121141904Y-129468571D01*
X121189523Y-129563809D01*
X121189523Y-129801904D01*
X121141904Y-129897142D01*
X121094285Y-129944761D01*
X120999047Y-129992380D01*
X120713333Y-129992380D01*
X120618095Y-129944761D01*
X120570476Y-129897142D01*
X173535000Y-101031904D02*
X173487380Y-101127142D01*
X173487380Y-101270000D01*
X173535000Y-101412857D01*
X173630238Y-101508095D01*
X173725476Y-101555714D01*
X173915952Y-101603333D01*
X174058809Y-101603333D01*
X174249285Y-101555714D01*
X174344523Y-101508095D01*
X174439761Y-101412857D01*
X174487380Y-101270000D01*
X174487380Y-101174761D01*
X174439761Y-101031904D01*
X174392142Y-100984285D01*
X174058809Y-100984285D01*
X174058809Y-101174761D01*
X174487380Y-100555714D02*
X173487380Y-100555714D01*
X174487380Y-99984285D01*
X173487380Y-99984285D01*
X174487380Y-99508095D02*
X173487380Y-99508095D01*
X173487380Y-99270000D01*
X173535000Y-99127142D01*
X173630238Y-99031904D01*
X173725476Y-98984285D01*
X173915952Y-98936666D01*
X174058809Y-98936666D01*
X174249285Y-98984285D01*
X174344523Y-99031904D01*
X174439761Y-99127142D01*
X174487380Y-99270000D01*
X174487380Y-99508095D01*
X116198571Y-116833571D02*
X116770000Y-116833571D01*
X116484285Y-117119285D02*
X116484285Y-116547857D01*
X117055714Y-116369285D02*
X117520000Y-116369285D01*
X117270000Y-116655000D01*
X117377142Y-116655000D01*
X117448571Y-116690714D01*
X117484285Y-116726428D01*
X117520000Y-116797857D01*
X117520000Y-116976428D01*
X117484285Y-117047857D01*
X117448571Y-117083571D01*
X117377142Y-117119285D01*
X117162857Y-117119285D01*
X117091428Y-117083571D01*
X117055714Y-117047857D01*
X117734285Y-116369285D02*
X117984285Y-117119285D01*
X118234285Y-116369285D01*
X118412857Y-116369285D02*
X118877142Y-116369285D01*
X118627142Y-116655000D01*
X118734285Y-116655000D01*
X118805714Y-116690714D01*
X118841428Y-116726428D01*
X118877142Y-116797857D01*
X118877142Y-116976428D01*
X118841428Y-117047857D01*
X118805714Y-117083571D01*
X118734285Y-117119285D01*
X118520000Y-117119285D01*
X118448571Y-117083571D01*
X118412857Y-117047857D01*
X115043571Y-111960000D02*
X114972142Y-111924285D01*
X114865000Y-111924285D01*
X114757857Y-111960000D01*
X114686428Y-112031428D01*
X114650714Y-112102857D01*
X114615000Y-112245714D01*
X114615000Y-112352857D01*
X114650714Y-112495714D01*
X114686428Y-112567142D01*
X114757857Y-112638571D01*
X114865000Y-112674285D01*
X114936428Y-112674285D01*
X115043571Y-112638571D01*
X115079285Y-112602857D01*
X115079285Y-112352857D01*
X114936428Y-112352857D01*
X115400714Y-112674285D02*
X115400714Y-111924285D01*
X115829285Y-112674285D01*
X115829285Y-111924285D01*
X116186428Y-112674285D02*
X116186428Y-111924285D01*
X116365000Y-111924285D01*
X116472142Y-111960000D01*
X116543571Y-112031428D01*
X116579285Y-112102857D01*
X116615000Y-112245714D01*
X116615000Y-112352857D01*
X116579285Y-112495714D01*
X116543571Y-112567142D01*
X116472142Y-112638571D01*
X116365000Y-112674285D01*
X116186428Y-112674285D01*
X101532619Y-70125595D02*
X102532619Y-70125595D01*
X102532619Y-70506547D01*
X102485000Y-70601785D01*
X102437380Y-70649404D01*
X102342142Y-70697023D01*
X102199285Y-70697023D01*
X102104047Y-70649404D01*
X102056428Y-70601785D01*
X102008809Y-70506547D01*
X102008809Y-70125595D01*
X101532619Y-71125595D02*
X102199285Y-71125595D01*
X102008809Y-71125595D02*
X102104047Y-71173214D01*
X102151666Y-71220833D01*
X102199285Y-71316071D01*
X102199285Y-71411309D01*
X101532619Y-71887500D02*
X101580238Y-71792261D01*
X101627857Y-71744642D01*
X101723095Y-71697023D01*
X102008809Y-71697023D01*
X102104047Y-71744642D01*
X102151666Y-71792261D01*
X102199285Y-71887500D01*
X102199285Y-72030357D01*
X102151666Y-72125595D01*
X102104047Y-72173214D01*
X102008809Y-72220833D01*
X101723095Y-72220833D01*
X101627857Y-72173214D01*
X101580238Y-72125595D01*
X101532619Y-72030357D01*
X101532619Y-71887500D01*
X102199285Y-72649404D02*
X101342142Y-72649404D01*
X101246904Y-72601785D01*
X101199285Y-72506547D01*
X101199285Y-72458928D01*
X102532619Y-72649404D02*
X102485000Y-72601785D01*
X102437380Y-72649404D01*
X102485000Y-72697023D01*
X102532619Y-72649404D01*
X102437380Y-72649404D01*
X101580238Y-73506547D02*
X101532619Y-73411309D01*
X101532619Y-73220833D01*
X101580238Y-73125595D01*
X101675476Y-73077976D01*
X102056428Y-73077976D01*
X102151666Y-73125595D01*
X102199285Y-73220833D01*
X102199285Y-73411309D01*
X102151666Y-73506547D01*
X102056428Y-73554166D01*
X101961190Y-73554166D01*
X101865952Y-73077976D01*
X101580238Y-74411309D02*
X101532619Y-74316071D01*
X101532619Y-74125595D01*
X101580238Y-74030357D01*
X101627857Y-73982738D01*
X101723095Y-73935119D01*
X102008809Y-73935119D01*
X102104047Y-73982738D01*
X102151666Y-74030357D01*
X102199285Y-74125595D01*
X102199285Y-74316071D01*
X102151666Y-74411309D01*
X102199285Y-74697023D02*
X102199285Y-75077976D01*
X102532619Y-74839880D02*
X101675476Y-74839880D01*
X101580238Y-74887500D01*
X101532619Y-74982738D01*
X101532619Y-75077976D01*
X102056428Y-76506547D02*
X102008809Y-76649404D01*
X101961190Y-76697023D01*
X101865952Y-76744642D01*
X101723095Y-76744642D01*
X101627857Y-76697023D01*
X101580238Y-76649404D01*
X101532619Y-76554166D01*
X101532619Y-76173214D01*
X102532619Y-76173214D01*
X102532619Y-76506547D01*
X102485000Y-76601785D01*
X102437380Y-76649404D01*
X102342142Y-76697023D01*
X102246904Y-76697023D01*
X102151666Y-76649404D01*
X102104047Y-76601785D01*
X102056428Y-76506547D01*
X102056428Y-76173214D01*
X101532619Y-77173214D02*
X102199285Y-77173214D01*
X102008809Y-77173214D02*
X102104047Y-77220833D01*
X102151666Y-77268452D01*
X102199285Y-77363690D01*
X102199285Y-77458928D01*
X101532619Y-78220833D02*
X102056428Y-78220833D01*
X102151666Y-78173214D01*
X102199285Y-78077976D01*
X102199285Y-77887500D01*
X102151666Y-77792261D01*
X101580238Y-78220833D02*
X101532619Y-78125595D01*
X101532619Y-77887500D01*
X101580238Y-77792261D01*
X101675476Y-77744642D01*
X101770714Y-77744642D01*
X101865952Y-77792261D01*
X101913571Y-77887500D01*
X101913571Y-78125595D01*
X101961190Y-78220833D01*
X102199285Y-78601785D02*
X101532619Y-78839880D01*
X102199285Y-79077976D01*
X101580238Y-79839880D02*
X101532619Y-79744642D01*
X101532619Y-79554166D01*
X101580238Y-79458928D01*
X101675476Y-79411309D01*
X102056428Y-79411309D01*
X102151666Y-79458928D01*
X102199285Y-79554166D01*
X102199285Y-79744642D01*
X102151666Y-79839880D01*
X102056428Y-79887500D01*
X101961190Y-79887500D01*
X101865952Y-79411309D01*
X101532619Y-81077976D02*
X102532619Y-81077976D01*
X102056428Y-81077976D02*
X102056428Y-81649404D01*
X101532619Y-81649404D02*
X102532619Y-81649404D01*
X101580238Y-82506547D02*
X101532619Y-82411309D01*
X101532619Y-82220833D01*
X101580238Y-82125595D01*
X101675476Y-82077976D01*
X102056428Y-82077976D01*
X102151666Y-82125595D01*
X102199285Y-82220833D01*
X102199285Y-82411309D01*
X102151666Y-82506547D01*
X102056428Y-82554166D01*
X101961190Y-82554166D01*
X101865952Y-82077976D01*
X101532619Y-83411309D02*
X102056428Y-83411309D01*
X102151666Y-83363690D01*
X102199285Y-83268452D01*
X102199285Y-83077976D01*
X102151666Y-82982738D01*
X101580238Y-83411309D02*
X101532619Y-83316071D01*
X101532619Y-83077976D01*
X101580238Y-82982738D01*
X101675476Y-82935119D01*
X101770714Y-82935119D01*
X101865952Y-82982738D01*
X101913571Y-83077976D01*
X101913571Y-83316071D01*
X101961190Y-83411309D01*
X101532619Y-83887500D02*
X102199285Y-83887500D01*
X102008809Y-83887500D02*
X102104047Y-83935119D01*
X102151666Y-83982738D01*
X102199285Y-84077976D01*
X102199285Y-84173214D01*
X102199285Y-84363690D02*
X102199285Y-84744642D01*
X102532619Y-84506547D02*
X101675476Y-84506547D01*
X101580238Y-84554166D01*
X101532619Y-84649404D01*
X101532619Y-84744642D01*
X101627857Y-85077976D02*
X101580238Y-85125595D01*
X101532619Y-85077976D01*
X101580238Y-85030357D01*
X101627857Y-85077976D01*
X101532619Y-85077976D01*
X102151666Y-85077976D02*
X102104047Y-85125595D01*
X102056428Y-85077976D01*
X102104047Y-85030357D01*
X102151666Y-85077976D01*
X102056428Y-85077976D01*
X102532619Y-86506547D02*
X102532619Y-86697023D01*
X102485000Y-86792261D01*
X102389761Y-86887500D01*
X102199285Y-86935119D01*
X101865952Y-86935119D01*
X101675476Y-86887500D01*
X101580238Y-86792261D01*
X101532619Y-86697023D01*
X101532619Y-86506547D01*
X101580238Y-86411309D01*
X101675476Y-86316071D01*
X101865952Y-86268452D01*
X102199285Y-86268452D01*
X102389761Y-86316071D01*
X102485000Y-86411309D01*
X102532619Y-86506547D01*
X102199285Y-87792261D02*
X101532619Y-87792261D01*
X102199285Y-87363690D02*
X101675476Y-87363690D01*
X101580238Y-87411309D01*
X101532619Y-87506547D01*
X101532619Y-87649404D01*
X101580238Y-87744642D01*
X101627857Y-87792261D01*
X101532619Y-88268452D02*
X102199285Y-88268452D01*
X102008809Y-88268452D02*
X102104047Y-88316071D01*
X102151666Y-88363690D01*
X102199285Y-88458928D01*
X102199285Y-88554166D01*
X102056428Y-89982738D02*
X102056428Y-89649404D01*
X101532619Y-89649404D02*
X102532619Y-89649404D01*
X102532619Y-90125595D01*
X101532619Y-90506547D02*
X102199285Y-90506547D01*
X102532619Y-90506547D02*
X102485000Y-90458928D01*
X102437380Y-90506547D01*
X102485000Y-90554166D01*
X102532619Y-90506547D01*
X102437380Y-90506547D01*
X101532619Y-90982738D02*
X102199285Y-90982738D01*
X102008809Y-90982738D02*
X102104047Y-91030357D01*
X102151666Y-91077976D01*
X102199285Y-91173214D01*
X102199285Y-91268452D01*
X101580238Y-91554166D02*
X101532619Y-91649404D01*
X101532619Y-91839880D01*
X101580238Y-91935119D01*
X101675476Y-91982738D01*
X101723095Y-91982738D01*
X101818333Y-91935119D01*
X101865952Y-91839880D01*
X101865952Y-91697023D01*
X101913571Y-91601785D01*
X102008809Y-91554166D01*
X102056428Y-91554166D01*
X102151666Y-91601785D01*
X102199285Y-91697023D01*
X102199285Y-91839880D01*
X102151666Y-91935119D01*
X102199285Y-92268452D02*
X102199285Y-92649404D01*
X102532619Y-92411309D02*
X101675476Y-92411309D01*
X101580238Y-92458928D01*
X101532619Y-92554166D01*
X101532619Y-92649404D01*
X101532619Y-94316071D02*
X102008809Y-93982738D01*
X101532619Y-93744642D02*
X102532619Y-93744642D01*
X102532619Y-94125595D01*
X102485000Y-94220833D01*
X102437380Y-94268452D01*
X102342142Y-94316071D01*
X102199285Y-94316071D01*
X102104047Y-94268452D01*
X102056428Y-94220833D01*
X102008809Y-94125595D01*
X102008809Y-93744642D01*
X101532619Y-95173214D02*
X102056428Y-95173214D01*
X102151666Y-95125595D01*
X102199285Y-95030357D01*
X102199285Y-94839880D01*
X102151666Y-94744642D01*
X101580238Y-95173214D02*
X101532619Y-95077976D01*
X101532619Y-94839880D01*
X101580238Y-94744642D01*
X101675476Y-94697023D01*
X101770714Y-94697023D01*
X101865952Y-94744642D01*
X101913571Y-94839880D01*
X101913571Y-95077976D01*
X101961190Y-95173214D01*
X101532619Y-96077976D02*
X102532619Y-96077976D01*
X101580238Y-96077976D02*
X101532619Y-95982738D01*
X101532619Y-95792261D01*
X101580238Y-95697023D01*
X101627857Y-95649404D01*
X101723095Y-95601785D01*
X102008809Y-95601785D01*
X102104047Y-95649404D01*
X102151666Y-95697023D01*
X102199285Y-95792261D01*
X102199285Y-95982738D01*
X102151666Y-96077976D01*
X101532619Y-96554166D02*
X102199285Y-96554166D01*
X102532619Y-96554166D02*
X102485000Y-96506547D01*
X102437380Y-96554166D01*
X102485000Y-96601785D01*
X102532619Y-96554166D01*
X102437380Y-96554166D01*
X101532619Y-97173214D02*
X101580238Y-97077976D01*
X101627857Y-97030357D01*
X101723095Y-96982738D01*
X102008809Y-96982738D01*
X102104047Y-97030357D01*
X102151666Y-97077976D01*
X102199285Y-97173214D01*
X102199285Y-97316071D01*
X102151666Y-97411309D01*
X102104047Y-97458928D01*
X102008809Y-97506547D01*
X101723095Y-97506547D01*
X101627857Y-97458928D01*
X101580238Y-97411309D01*
X101532619Y-97316071D01*
X101532619Y-97173214D01*
X101818333Y-98649404D02*
X101818333Y-99125595D01*
X101532619Y-98554166D02*
X102532619Y-98887499D01*
X101532619Y-99220833D01*
X101532619Y-99697023D02*
X101580238Y-99601785D01*
X101675476Y-99554166D01*
X102532619Y-99554166D01*
X101532619Y-100506547D02*
X102056428Y-100506547D01*
X102151666Y-100458928D01*
X102199285Y-100363690D01*
X102199285Y-100173214D01*
X102151666Y-100077976D01*
X101580238Y-100506547D02*
X101532619Y-100411309D01*
X101532619Y-100173214D01*
X101580238Y-100077976D01*
X101675476Y-100030357D01*
X101770714Y-100030357D01*
X101865952Y-100077976D01*
X101913571Y-100173214D01*
X101913571Y-100411309D01*
X101961190Y-100506547D01*
X101532619Y-100982738D02*
X102199285Y-100982738D01*
X102008809Y-100982738D02*
X102104047Y-101030357D01*
X102151666Y-101077976D01*
X102199285Y-101173214D01*
X102199285Y-101268452D01*
X101532619Y-101601785D02*
X102199285Y-101601785D01*
X102104047Y-101601785D02*
X102151666Y-101649404D01*
X102199285Y-101744642D01*
X102199285Y-101887499D01*
X102151666Y-101982738D01*
X102056428Y-102030357D01*
X101532619Y-102030357D01*
X102056428Y-102030357D02*
X102151666Y-102077976D01*
X102199285Y-102173214D01*
X102199285Y-102316071D01*
X102151666Y-102411309D01*
X102056428Y-102458928D01*
X101532619Y-102458928D01*
X101627857Y-104268452D02*
X101580238Y-104220833D01*
X101532619Y-104077976D01*
X101532619Y-103982738D01*
X101580238Y-103839880D01*
X101675476Y-103744642D01*
X101770714Y-103697023D01*
X101961190Y-103649404D01*
X102104047Y-103649404D01*
X102294523Y-103697023D01*
X102389761Y-103744642D01*
X102485000Y-103839880D01*
X102532619Y-103982738D01*
X102532619Y-104077976D01*
X102485000Y-104220833D01*
X102437380Y-104268452D01*
X101532619Y-104839880D02*
X101580238Y-104744642D01*
X101675476Y-104697023D01*
X102532619Y-104697023D01*
X101532619Y-105363690D02*
X101580238Y-105268452D01*
X101627857Y-105220833D01*
X101723095Y-105173214D01*
X102008809Y-105173214D01*
X102104047Y-105220833D01*
X102151666Y-105268452D01*
X102199285Y-105363690D01*
X102199285Y-105506547D01*
X102151666Y-105601785D01*
X102104047Y-105649404D01*
X102008809Y-105697023D01*
X101723095Y-105697023D01*
X101627857Y-105649404D01*
X101580238Y-105601785D01*
X101532619Y-105506547D01*
X101532619Y-105363690D01*
X101580238Y-106554166D02*
X101532619Y-106458928D01*
X101532619Y-106268452D01*
X101580238Y-106173214D01*
X101627857Y-106125595D01*
X101723095Y-106077976D01*
X102008809Y-106077976D01*
X102104047Y-106125595D01*
X102151666Y-106173214D01*
X102199285Y-106268452D01*
X102199285Y-106458928D01*
X102151666Y-106554166D01*
X101532619Y-106982738D02*
X102532619Y-106982738D01*
X101913571Y-107077976D02*
X101532619Y-107363690D01*
X102199285Y-107363690D02*
X101818333Y-106982738D01*
X100922619Y-69982738D02*
X99922619Y-70316071D01*
X100922619Y-70649404D01*
X99970238Y-71363690D02*
X99922619Y-71268452D01*
X99922619Y-71077976D01*
X99970238Y-70982738D01*
X100065476Y-70935119D01*
X100446428Y-70935119D01*
X100541666Y-70982738D01*
X100589285Y-71077976D01*
X100589285Y-71268452D01*
X100541666Y-71363690D01*
X100446428Y-71411309D01*
X100351190Y-71411309D01*
X100255952Y-70935119D01*
X99922619Y-71839880D02*
X100589285Y-71839880D01*
X100398809Y-71839880D02*
X100494047Y-71887500D01*
X100541666Y-71935119D01*
X100589285Y-72030357D01*
X100589285Y-72125595D01*
X99970238Y-72411309D02*
X99922619Y-72506547D01*
X99922619Y-72697023D01*
X99970238Y-72792261D01*
X100065476Y-72839880D01*
X100113095Y-72839880D01*
X100208333Y-72792261D01*
X100255952Y-72697023D01*
X100255952Y-72554166D01*
X100303571Y-72458928D01*
X100398809Y-72411309D01*
X100446428Y-72411309D01*
X100541666Y-72458928D01*
X100589285Y-72554166D01*
X100589285Y-72697023D01*
X100541666Y-72792261D01*
X99922619Y-73268452D02*
X100589285Y-73268452D01*
X100922619Y-73268452D02*
X100875000Y-73220833D01*
X100827380Y-73268452D01*
X100875000Y-73316071D01*
X100922619Y-73268452D01*
X100827380Y-73268452D01*
X99922619Y-73887500D02*
X99970238Y-73792261D01*
X100017857Y-73744642D01*
X100113095Y-73697023D01*
X100398809Y-73697023D01*
X100494047Y-73744642D01*
X100541666Y-73792261D01*
X100589285Y-73887500D01*
X100589285Y-74030357D01*
X100541666Y-74125595D01*
X100494047Y-74173214D01*
X100398809Y-74220833D01*
X100113095Y-74220833D01*
X100017857Y-74173214D01*
X99970238Y-74125595D01*
X99922619Y-74030357D01*
X99922619Y-73887500D01*
X100589285Y-74649404D02*
X99922619Y-74649404D01*
X100494047Y-74649404D02*
X100541666Y-74697023D01*
X100589285Y-74792261D01*
X100589285Y-74935119D01*
X100541666Y-75030357D01*
X100446428Y-75077976D01*
X99922619Y-75077976D01*
X100017857Y-75554166D02*
X99970238Y-75601785D01*
X99922619Y-75554166D01*
X99970238Y-75506547D01*
X100017857Y-75554166D01*
X99922619Y-75554166D01*
X100541666Y-75554166D02*
X100494047Y-75601785D01*
X100446428Y-75554166D01*
X100494047Y-75506547D01*
X100541666Y-75554166D01*
X100446428Y-75554166D01*
X100922619Y-76649404D02*
X100922619Y-77220833D01*
X99922619Y-76935119D02*
X100922619Y-76935119D01*
X100589285Y-77982738D02*
X99922619Y-77982738D01*
X100589285Y-77554166D02*
X100065476Y-77554166D01*
X99970238Y-77601785D01*
X99922619Y-77697023D01*
X99922619Y-77839880D01*
X99970238Y-77935119D01*
X100017857Y-77982738D01*
X99922619Y-78458928D02*
X100589285Y-78458928D01*
X100398809Y-78458928D02*
X100494047Y-78506547D01*
X100541666Y-78554166D01*
X100589285Y-78649404D01*
X100589285Y-78744642D01*
X100589285Y-78935119D02*
X100589285Y-79316071D01*
X100922619Y-79077976D02*
X100065476Y-79077976D01*
X99970238Y-79125595D01*
X99922619Y-79220833D01*
X99922619Y-79316071D01*
X99922619Y-79792261D02*
X99970238Y-79697023D01*
X100065476Y-79649404D01*
X100922619Y-79649404D01*
X99970238Y-80554166D02*
X99922619Y-80458928D01*
X99922619Y-80268452D01*
X99970238Y-80173214D01*
X100065476Y-80125595D01*
X100446428Y-80125595D01*
X100541666Y-80173214D01*
X100589285Y-80268452D01*
X100589285Y-80458928D01*
X100541666Y-80554166D01*
X100446428Y-80601785D01*
X100351190Y-80601785D01*
X100255952Y-80125595D01*
X100303571Y-81030357D02*
X100303571Y-81792261D01*
X99922619Y-82792261D02*
X99922619Y-82220833D01*
X99922619Y-82506547D02*
X100922619Y-82506547D01*
X100779761Y-82411309D01*
X100684523Y-82316071D01*
X100636904Y-82220833D01*
X100017857Y-83220833D02*
X99970238Y-83268452D01*
X99922619Y-83220833D01*
X99970238Y-83173214D01*
X100017857Y-83220833D01*
X99922619Y-83220833D01*
X100922619Y-83887500D02*
X100922619Y-83982738D01*
X100875000Y-84077976D01*
X100827380Y-84125595D01*
X100732142Y-84173214D01*
X100541666Y-84220833D01*
X100303571Y-84220833D01*
X100113095Y-84173214D01*
X100017857Y-84125595D01*
X99970238Y-84077976D01*
X99922619Y-83982738D01*
X99922619Y-83887500D01*
X99970238Y-83792261D01*
X100017857Y-83744642D01*
X100113095Y-83697023D01*
X100303571Y-83649404D01*
X100541666Y-83649404D01*
X100732142Y-83697023D01*
X100827380Y-83744642D01*
X100875000Y-83792261D01*
X100922619Y-83887500D01*
X98836428Y-70458928D02*
X98788809Y-70601785D01*
X98741190Y-70649404D01*
X98645952Y-70697023D01*
X98503095Y-70697023D01*
X98407857Y-70649404D01*
X98360238Y-70601785D01*
X98312619Y-70506547D01*
X98312619Y-70125595D01*
X99312619Y-70125595D01*
X99312619Y-70458928D01*
X99265000Y-70554166D01*
X99217380Y-70601785D01*
X99122142Y-70649404D01*
X99026904Y-70649404D01*
X98931666Y-70601785D01*
X98884047Y-70554166D01*
X98836428Y-70458928D01*
X98836428Y-70125595D01*
X98979285Y-71030357D02*
X98312619Y-71268452D01*
X98979285Y-71506547D02*
X98312619Y-71268452D01*
X98074523Y-71173214D01*
X98026904Y-71125595D01*
X97979285Y-71030357D01*
X98407857Y-71887500D02*
X98360238Y-71935119D01*
X98312619Y-71887500D01*
X98360238Y-71839880D01*
X98407857Y-71887500D01*
X98312619Y-71887500D01*
X98931666Y-71887500D02*
X98884047Y-71935119D01*
X98836428Y-71887500D01*
X98884047Y-71839880D01*
X98931666Y-71887500D01*
X98836428Y-71887500D01*
X98836428Y-73125595D02*
X98836428Y-73458928D01*
X98312619Y-73601785D02*
X98312619Y-73125595D01*
X99312619Y-73125595D01*
X99312619Y-73601785D01*
X98312619Y-74030357D02*
X99312619Y-74030357D01*
X98931666Y-74030357D02*
X98979285Y-74125595D01*
X98979285Y-74316071D01*
X98931666Y-74411309D01*
X98884047Y-74458928D01*
X98788809Y-74506547D01*
X98503095Y-74506547D01*
X98407857Y-74458928D01*
X98360238Y-74411309D01*
X98312619Y-74316071D01*
X98312619Y-74125595D01*
X98360238Y-74030357D01*
X98360238Y-75316071D02*
X98312619Y-75220833D01*
X98312619Y-75030357D01*
X98360238Y-74935119D01*
X98455476Y-74887500D01*
X98836428Y-74887500D01*
X98931666Y-74935119D01*
X98979285Y-75030357D01*
X98979285Y-75220833D01*
X98931666Y-75316071D01*
X98836428Y-75363690D01*
X98741190Y-75363690D01*
X98645952Y-74887500D01*
X98312619Y-75792261D02*
X98979285Y-75792261D01*
X98788809Y-75792261D02*
X98884047Y-75839880D01*
X98931666Y-75887500D01*
X98979285Y-75982738D01*
X98979285Y-76077976D01*
X98979285Y-76268452D02*
X98979285Y-76649404D01*
X99312619Y-76411309D02*
X98455476Y-76411309D01*
X98360238Y-76458928D01*
X98312619Y-76554166D01*
X98312619Y-76649404D01*
X98360238Y-77030357D02*
X98312619Y-77030357D01*
X98217380Y-76982738D01*
X98169761Y-76935119D01*
X98312619Y-78220833D02*
X99312619Y-78220833D01*
X98598333Y-78554166D01*
X99312619Y-78887500D01*
X98312619Y-78887500D01*
X98360238Y-79411309D02*
X98312619Y-79411309D01*
X98217380Y-79363690D01*
X98169761Y-79316071D01*
X98931666Y-79363690D02*
X98884047Y-79411309D01*
X98836428Y-79363690D01*
X98884047Y-79316071D01*
X98931666Y-79363690D01*
X98836428Y-79363690D01*
X99312619Y-80506547D02*
X98312619Y-80744642D01*
X99026904Y-80935119D01*
X98312619Y-81125595D01*
X99312619Y-81363690D01*
X98312619Y-81744642D02*
X98979285Y-81744642D01*
X99312619Y-81744642D02*
X99265000Y-81697023D01*
X99217380Y-81744642D01*
X99265000Y-81792261D01*
X99312619Y-81744642D01*
X99217380Y-81744642D01*
X98360238Y-82601785D02*
X98312619Y-82506547D01*
X98312619Y-82316071D01*
X98360238Y-82220833D01*
X98455476Y-82173214D01*
X98836428Y-82173214D01*
X98931666Y-82220833D01*
X98979285Y-82316071D01*
X98979285Y-82506547D01*
X98931666Y-82601785D01*
X98836428Y-82649404D01*
X98741190Y-82649404D01*
X98645952Y-82173214D01*
X98312619Y-83077976D02*
X99312619Y-83077976D01*
X98931666Y-83077976D02*
X98979285Y-83173214D01*
X98979285Y-83363690D01*
X98931666Y-83458928D01*
X98884047Y-83506547D01*
X98788809Y-83554166D01*
X98503095Y-83554166D01*
X98407857Y-83506547D01*
X98360238Y-83458928D01*
X98312619Y-83363690D01*
X98312619Y-83173214D01*
X98360238Y-83077976D01*
X98360238Y-84363690D02*
X98312619Y-84268452D01*
X98312619Y-84077976D01*
X98360238Y-83982738D01*
X98455476Y-83935119D01*
X98836428Y-83935119D01*
X98931666Y-83982738D01*
X98979285Y-84077976D01*
X98979285Y-84268452D01*
X98931666Y-84363690D01*
X98836428Y-84411309D01*
X98741190Y-84411309D01*
X98645952Y-83935119D01*
X98360238Y-84887500D02*
X98312619Y-84887500D01*
X98217380Y-84839880D01*
X98169761Y-84792261D01*
X98407857Y-86649404D02*
X98360238Y-86601785D01*
X98312619Y-86458928D01*
X98312619Y-86363690D01*
X98360238Y-86220833D01*
X98455476Y-86125595D01*
X98550714Y-86077976D01*
X98741190Y-86030357D01*
X98884047Y-86030357D01*
X99074523Y-86077976D01*
X99169761Y-86125595D01*
X99265000Y-86220833D01*
X99312619Y-86363690D01*
X99312619Y-86458928D01*
X99265000Y-86601785D01*
X99217380Y-86649404D01*
X173487380Y-107111904D02*
X174487380Y-106778571D01*
X173487380Y-106445238D01*
X173487380Y-105921428D02*
X173487380Y-105730952D01*
X173535000Y-105635714D01*
X173630238Y-105540476D01*
X173820714Y-105492857D01*
X174154047Y-105492857D01*
X174344523Y-105540476D01*
X174439761Y-105635714D01*
X174487380Y-105730952D01*
X174487380Y-105921428D01*
X174439761Y-106016666D01*
X174344523Y-106111904D01*
X174154047Y-106159523D01*
X173820714Y-106159523D01*
X173630238Y-106111904D01*
X173535000Y-106016666D01*
X173487380Y-105921428D01*
X173487380Y-105064285D02*
X174296904Y-105064285D01*
X174392142Y-105016666D01*
X174439761Y-104969047D01*
X174487380Y-104873809D01*
X174487380Y-104683333D01*
X174439761Y-104588095D01*
X174392142Y-104540476D01*
X174296904Y-104492857D01*
X173487380Y-104492857D01*
X173487380Y-104159523D02*
X173487380Y-103588095D01*
X174487380Y-103873809D02*
X173487380Y-103873809D01*
X174415952Y-129408571D02*
X173654047Y-129408571D01*
X174035000Y-129027619D02*
X174035000Y-129789523D01*
%TO.C,R9*%
X106077380Y-109326666D02*
X105601190Y-109660000D01*
X106077380Y-109898095D02*
X105077380Y-109898095D01*
X105077380Y-109517142D01*
X105125000Y-109421904D01*
X105172619Y-109374285D01*
X105267857Y-109326666D01*
X105410714Y-109326666D01*
X105505952Y-109374285D01*
X105553571Y-109421904D01*
X105601190Y-109517142D01*
X105601190Y-109898095D01*
X106077380Y-108850476D02*
X106077380Y-108660000D01*
X106029761Y-108564761D01*
X105982142Y-108517142D01*
X105839285Y-108421904D01*
X105648809Y-108374285D01*
X105267857Y-108374285D01*
X105172619Y-108421904D01*
X105125000Y-108469523D01*
X105077380Y-108564761D01*
X105077380Y-108755238D01*
X105125000Y-108850476D01*
X105172619Y-108898095D01*
X105267857Y-108945714D01*
X105505952Y-108945714D01*
X105601190Y-108898095D01*
X105648809Y-108850476D01*
X105696428Y-108755238D01*
X105696428Y-108564761D01*
X105648809Y-108469523D01*
X105601190Y-108421904D01*
X105505952Y-108374285D01*
%TO.C,J4*%
X145761666Y-75167380D02*
X145761666Y-75881666D01*
X145714047Y-76024523D01*
X145618809Y-76119761D01*
X145475952Y-76167380D01*
X145380714Y-76167380D01*
X146666428Y-75500714D02*
X146666428Y-76167380D01*
X146428333Y-75119761D02*
X146190238Y-75834047D01*
X146809285Y-75834047D01*
%TO.C,R10*%
X156882142Y-74052380D02*
X156548809Y-73576190D01*
X156310714Y-74052380D02*
X156310714Y-73052380D01*
X156691666Y-73052380D01*
X156786904Y-73100000D01*
X156834523Y-73147619D01*
X156882142Y-73242857D01*
X156882142Y-73385714D01*
X156834523Y-73480952D01*
X156786904Y-73528571D01*
X156691666Y-73576190D01*
X156310714Y-73576190D01*
X157834523Y-74052380D02*
X157263095Y-74052380D01*
X157548809Y-74052380D02*
X157548809Y-73052380D01*
X157453571Y-73195238D01*
X157358333Y-73290476D01*
X157263095Y-73338095D01*
X158453571Y-73052380D02*
X158548809Y-73052380D01*
X158644047Y-73100000D01*
X158691666Y-73147619D01*
X158739285Y-73242857D01*
X158786904Y-73433333D01*
X158786904Y-73671428D01*
X158739285Y-73861904D01*
X158691666Y-73957142D01*
X158644047Y-74004761D01*
X158548809Y-74052380D01*
X158453571Y-74052380D01*
X158358333Y-74004761D01*
X158310714Y-73957142D01*
X158263095Y-73861904D01*
X158215476Y-73671428D01*
X158215476Y-73433333D01*
X158263095Y-73242857D01*
X158310714Y-73147619D01*
X158358333Y-73100000D01*
X158453571Y-73052380D01*
%TO.C,R8*%
X157358333Y-61522380D02*
X157025000Y-61046190D01*
X156786904Y-61522380D02*
X156786904Y-60522380D01*
X157167857Y-60522380D01*
X157263095Y-60570000D01*
X157310714Y-60617619D01*
X157358333Y-60712857D01*
X157358333Y-60855714D01*
X157310714Y-60950952D01*
X157263095Y-60998571D01*
X157167857Y-61046190D01*
X156786904Y-61046190D01*
X157929761Y-60950952D02*
X157834523Y-60903333D01*
X157786904Y-60855714D01*
X157739285Y-60760476D01*
X157739285Y-60712857D01*
X157786904Y-60617619D01*
X157834523Y-60570000D01*
X157929761Y-60522380D01*
X158120238Y-60522380D01*
X158215476Y-60570000D01*
X158263095Y-60617619D01*
X158310714Y-60712857D01*
X158310714Y-60760476D01*
X158263095Y-60855714D01*
X158215476Y-60903333D01*
X158120238Y-60950952D01*
X157929761Y-60950952D01*
X157834523Y-60998571D01*
X157786904Y-61046190D01*
X157739285Y-61141428D01*
X157739285Y-61331904D01*
X157786904Y-61427142D01*
X157834523Y-61474761D01*
X157929761Y-61522380D01*
X158120238Y-61522380D01*
X158215476Y-61474761D01*
X158263095Y-61427142D01*
X158310714Y-61331904D01*
X158310714Y-61141428D01*
X158263095Y-61046190D01*
X158215476Y-60998571D01*
X158120238Y-60950952D01*
%TO.C,J10*%
X164335476Y-64162380D02*
X164335476Y-64876666D01*
X164287857Y-65019523D01*
X164192619Y-65114761D01*
X164049761Y-65162380D01*
X163954523Y-65162380D01*
X165335476Y-65162380D02*
X164764047Y-65162380D01*
X165049761Y-65162380D02*
X165049761Y-64162380D01*
X164954523Y-64305238D01*
X164859285Y-64400476D01*
X164764047Y-64448095D01*
X165954523Y-64162380D02*
X166049761Y-64162380D01*
X166145000Y-64210000D01*
X166192619Y-64257619D01*
X166240238Y-64352857D01*
X166287857Y-64543333D01*
X166287857Y-64781428D01*
X166240238Y-64971904D01*
X166192619Y-65067142D01*
X166145000Y-65114761D01*
X166049761Y-65162380D01*
X165954523Y-65162380D01*
X165859285Y-65114761D01*
X165811666Y-65067142D01*
X165764047Y-64971904D01*
X165716428Y-64781428D01*
X165716428Y-64543333D01*
X165764047Y-64352857D01*
X165811666Y-64257619D01*
X165859285Y-64210000D01*
X165954523Y-64162380D01*
%TO.C,H4*%
X99613095Y-110492380D02*
X99613095Y-109492380D01*
X99613095Y-109968571D02*
X100184523Y-109968571D01*
X100184523Y-110492380D02*
X100184523Y-109492380D01*
X101089285Y-109825714D02*
X101089285Y-110492380D01*
X100851190Y-109444761D02*
X100613095Y-110159047D01*
X101232142Y-110159047D01*
%TO.C,H3*%
X99613095Y-59692380D02*
X99613095Y-58692380D01*
X99613095Y-59168571D02*
X100184523Y-59168571D01*
X100184523Y-59692380D02*
X100184523Y-58692380D01*
X100565476Y-58692380D02*
X101184523Y-58692380D01*
X100851190Y-59073333D01*
X100994047Y-59073333D01*
X101089285Y-59120952D01*
X101136904Y-59168571D01*
X101184523Y-59263809D01*
X101184523Y-59501904D01*
X101136904Y-59597142D01*
X101089285Y-59644761D01*
X100994047Y-59692380D01*
X100708333Y-59692380D01*
X100613095Y-59644761D01*
X100565476Y-59597142D01*
%TO.C,H2*%
X173273095Y-110492380D02*
X173273095Y-109492380D01*
X173273095Y-109968571D02*
X173844523Y-109968571D01*
X173844523Y-110492380D02*
X173844523Y-109492380D01*
X174273095Y-109587619D02*
X174320714Y-109540000D01*
X174415952Y-109492380D01*
X174654047Y-109492380D01*
X174749285Y-109540000D01*
X174796904Y-109587619D01*
X174844523Y-109682857D01*
X174844523Y-109778095D01*
X174796904Y-109920952D01*
X174225476Y-110492380D01*
X174844523Y-110492380D01*
%TO.C,H1*%
X173273095Y-59692380D02*
X173273095Y-58692380D01*
X173273095Y-59168571D02*
X173844523Y-59168571D01*
X173844523Y-59692380D02*
X173844523Y-58692380D01*
X174844523Y-59692380D02*
X174273095Y-59692380D01*
X174558809Y-59692380D02*
X174558809Y-58692380D01*
X174463571Y-58835238D01*
X174368333Y-58930476D01*
X174273095Y-58978095D01*
%TO.C,C1*%
X139512142Y-125856666D02*
X139559761Y-125904285D01*
X139607380Y-126047142D01*
X139607380Y-126142380D01*
X139559761Y-126285238D01*
X139464523Y-126380476D01*
X139369285Y-126428095D01*
X139178809Y-126475714D01*
X139035952Y-126475714D01*
X138845476Y-126428095D01*
X138750238Y-126380476D01*
X138655000Y-126285238D01*
X138607380Y-126142380D01*
X138607380Y-126047142D01*
X138655000Y-125904285D01*
X138702619Y-125856666D01*
X139607380Y-124904285D02*
X139607380Y-125475714D01*
X139607380Y-125190000D02*
X138607380Y-125190000D01*
X138750238Y-125285238D01*
X138845476Y-125380476D01*
X138893095Y-125475714D01*
%TO.C,J7*%
X155707380Y-91713333D02*
X156421666Y-91713333D01*
X156564523Y-91760952D01*
X156659761Y-91856190D01*
X156707380Y-91999047D01*
X156707380Y-92094285D01*
X155707380Y-91332380D02*
X155707380Y-90665714D01*
X156707380Y-91094285D01*
%TO.C,J6*%
X156977380Y-106953333D02*
X157691666Y-106953333D01*
X157834523Y-107000952D01*
X157929761Y-107096190D01*
X157977380Y-107239047D01*
X157977380Y-107334285D01*
X156977380Y-106048571D02*
X156977380Y-106239047D01*
X157025000Y-106334285D01*
X157072619Y-106381904D01*
X157215476Y-106477142D01*
X157405952Y-106524761D01*
X157786904Y-106524761D01*
X157882142Y-106477142D01*
X157929761Y-106429523D01*
X157977380Y-106334285D01*
X157977380Y-106143809D01*
X157929761Y-106048571D01*
X157882142Y-106000952D01*
X157786904Y-105953333D01*
X157548809Y-105953333D01*
X157453571Y-106000952D01*
X157405952Y-106048571D01*
X157358333Y-106143809D01*
X157358333Y-106334285D01*
X157405952Y-106429523D01*
X157453571Y-106477142D01*
X157548809Y-106524761D01*
%TO.C,C3*%
X140783333Y-98827142D02*
X140735714Y-98874761D01*
X140592857Y-98922380D01*
X140497619Y-98922380D01*
X140354761Y-98874761D01*
X140259523Y-98779523D01*
X140211904Y-98684285D01*
X140164285Y-98493809D01*
X140164285Y-98350952D01*
X140211904Y-98160476D01*
X140259523Y-98065238D01*
X140354761Y-97970000D01*
X140497619Y-97922380D01*
X140592857Y-97922380D01*
X140735714Y-97970000D01*
X140783333Y-98017619D01*
X141116666Y-97922380D02*
X141735714Y-97922380D01*
X141402380Y-98303333D01*
X141545238Y-98303333D01*
X141640476Y-98350952D01*
X141688095Y-98398571D01*
X141735714Y-98493809D01*
X141735714Y-98731904D01*
X141688095Y-98827142D01*
X141640476Y-98874761D01*
X141545238Y-98922380D01*
X141259523Y-98922380D01*
X141164285Y-98874761D01*
X141116666Y-98827142D01*
%TO.C,R7*%
X144658333Y-98182380D02*
X144325000Y-97706190D01*
X144086904Y-98182380D02*
X144086904Y-97182380D01*
X144467857Y-97182380D01*
X144563095Y-97230000D01*
X144610714Y-97277619D01*
X144658333Y-97372857D01*
X144658333Y-97515714D01*
X144610714Y-97610952D01*
X144563095Y-97658571D01*
X144467857Y-97706190D01*
X144086904Y-97706190D01*
X144991666Y-97182380D02*
X145658333Y-97182380D01*
X145229761Y-98182380D01*
%TO.C,D2*%
X112257380Y-97198095D02*
X111257380Y-97198095D01*
X111257380Y-96960000D01*
X111305000Y-96817142D01*
X111400238Y-96721904D01*
X111495476Y-96674285D01*
X111685952Y-96626666D01*
X111828809Y-96626666D01*
X112019285Y-96674285D01*
X112114523Y-96721904D01*
X112209761Y-96817142D01*
X112257380Y-96960000D01*
X112257380Y-97198095D01*
X111352619Y-96245714D02*
X111305000Y-96198095D01*
X111257380Y-96102857D01*
X111257380Y-95864761D01*
X111305000Y-95769523D01*
X111352619Y-95721904D01*
X111447857Y-95674285D01*
X111543095Y-95674285D01*
X111685952Y-95721904D01*
X112257380Y-96293333D01*
X112257380Y-95674285D01*
%TO.C,J5*%
X159517380Y-119653333D02*
X160231666Y-119653333D01*
X160374523Y-119700952D01*
X160469761Y-119796190D01*
X160517380Y-119939047D01*
X160517380Y-120034285D01*
X159517380Y-118700952D02*
X159517380Y-119177142D01*
X159993571Y-119224761D01*
X159945952Y-119177142D01*
X159898333Y-119081904D01*
X159898333Y-118843809D01*
X159945952Y-118748571D01*
X159993571Y-118700952D01*
X160088809Y-118653333D01*
X160326904Y-118653333D01*
X160422142Y-118700952D01*
X160469761Y-118748571D01*
X160517380Y-118843809D01*
X160517380Y-119081904D01*
X160469761Y-119177142D01*
X160422142Y-119224761D01*
%TO.C,J8*%
X135601666Y-70722380D02*
X135601666Y-71436666D01*
X135554047Y-71579523D01*
X135458809Y-71674761D01*
X135315952Y-71722380D01*
X135220714Y-71722380D01*
X136220714Y-71150952D02*
X136125476Y-71103333D01*
X136077857Y-71055714D01*
X136030238Y-70960476D01*
X136030238Y-70912857D01*
X136077857Y-70817619D01*
X136125476Y-70770000D01*
X136220714Y-70722380D01*
X136411190Y-70722380D01*
X136506428Y-70770000D01*
X136554047Y-70817619D01*
X136601666Y-70912857D01*
X136601666Y-70960476D01*
X136554047Y-71055714D01*
X136506428Y-71103333D01*
X136411190Y-71150952D01*
X136220714Y-71150952D01*
X136125476Y-71198571D01*
X136077857Y-71246190D01*
X136030238Y-71341428D01*
X136030238Y-71531904D01*
X136077857Y-71627142D01*
X136125476Y-71674761D01*
X136220714Y-71722380D01*
X136411190Y-71722380D01*
X136506428Y-71674761D01*
X136554047Y-71627142D01*
X136601666Y-71531904D01*
X136601666Y-71341428D01*
X136554047Y-71246190D01*
X136506428Y-71198571D01*
X136411190Y-71150952D01*
%TO.C,R3*%
X104762380Y-122086666D02*
X104286190Y-122420000D01*
X104762380Y-122658095D02*
X103762380Y-122658095D01*
X103762380Y-122277142D01*
X103810000Y-122181904D01*
X103857619Y-122134285D01*
X103952857Y-122086666D01*
X104095714Y-122086666D01*
X104190952Y-122134285D01*
X104238571Y-122181904D01*
X104286190Y-122277142D01*
X104286190Y-122658095D01*
X103762380Y-121753333D02*
X103762380Y-121134285D01*
X104143333Y-121467619D01*
X104143333Y-121324761D01*
X104190952Y-121229523D01*
X104238571Y-121181904D01*
X104333809Y-121134285D01*
X104571904Y-121134285D01*
X104667142Y-121181904D01*
X104714761Y-121229523D01*
X104762380Y-121324761D01*
X104762380Y-121610476D01*
X104714761Y-121705714D01*
X104667142Y-121753333D01*
%TO.C,R1*%
X138757380Y-123931666D02*
X138281190Y-124265000D01*
X138757380Y-124503095D02*
X137757380Y-124503095D01*
X137757380Y-124122142D01*
X137805000Y-124026904D01*
X137852619Y-123979285D01*
X137947857Y-123931666D01*
X138090714Y-123931666D01*
X138185952Y-123979285D01*
X138233571Y-124026904D01*
X138281190Y-124122142D01*
X138281190Y-124503095D01*
X138757380Y-122979285D02*
X138757380Y-123550714D01*
X138757380Y-123265000D02*
X137757380Y-123265000D01*
X137900238Y-123360238D01*
X137995476Y-123455476D01*
X138043095Y-123550714D01*
%TO.C,DISP1*%
X113692380Y-116252380D02*
X112692380Y-116252380D01*
X112692380Y-116014285D01*
X112740000Y-115871428D01*
X112835238Y-115776190D01*
X112930476Y-115728571D01*
X113120952Y-115680952D01*
X113263809Y-115680952D01*
X113454285Y-115728571D01*
X113549523Y-115776190D01*
X113644761Y-115871428D01*
X113692380Y-116014285D01*
X113692380Y-116252380D01*
X113692380Y-115252380D02*
X112692380Y-115252380D01*
X113644761Y-114823809D02*
X113692380Y-114680952D01*
X113692380Y-114442857D01*
X113644761Y-114347619D01*
X113597142Y-114300000D01*
X113501904Y-114252380D01*
X113406666Y-114252380D01*
X113311428Y-114300000D01*
X113263809Y-114347619D01*
X113216190Y-114442857D01*
X113168571Y-114633333D01*
X113120952Y-114728571D01*
X113073333Y-114776190D01*
X112978095Y-114823809D01*
X112882857Y-114823809D01*
X112787619Y-114776190D01*
X112740000Y-114728571D01*
X112692380Y-114633333D01*
X112692380Y-114395238D01*
X112740000Y-114252380D01*
X113692380Y-113823809D02*
X112692380Y-113823809D01*
X112692380Y-113442857D01*
X112740000Y-113347619D01*
X112787619Y-113300000D01*
X112882857Y-113252380D01*
X113025714Y-113252380D01*
X113120952Y-113300000D01*
X113168571Y-113347619D01*
X113216190Y-113442857D01*
X113216190Y-113823809D01*
X113692380Y-112300000D02*
X113692380Y-112871428D01*
X113692380Y-112585714D02*
X112692380Y-112585714D01*
X112835238Y-112680952D01*
X112930476Y-112776190D01*
X112978095Y-112871428D01*
%TO.C,R5*%
X151008333Y-101992380D02*
X150675000Y-101516190D01*
X150436904Y-101992380D02*
X150436904Y-100992380D01*
X150817857Y-100992380D01*
X150913095Y-101040000D01*
X150960714Y-101087619D01*
X151008333Y-101182857D01*
X151008333Y-101325714D01*
X150960714Y-101420952D01*
X150913095Y-101468571D01*
X150817857Y-101516190D01*
X150436904Y-101516190D01*
X151913095Y-100992380D02*
X151436904Y-100992380D01*
X151389285Y-101468571D01*
X151436904Y-101420952D01*
X151532142Y-101373333D01*
X151770238Y-101373333D01*
X151865476Y-101420952D01*
X151913095Y-101468571D01*
X151960714Y-101563809D01*
X151960714Y-101801904D01*
X151913095Y-101897142D01*
X151865476Y-101944761D01*
X151770238Y-101992380D01*
X151532142Y-101992380D01*
X151436904Y-101944761D01*
X151389285Y-101897142D01*
%TO.C,R2*%
X108572380Y-129706666D02*
X108096190Y-130040000D01*
X108572380Y-130278095D02*
X107572380Y-130278095D01*
X107572380Y-129897142D01*
X107620000Y-129801904D01*
X107667619Y-129754285D01*
X107762857Y-129706666D01*
X107905714Y-129706666D01*
X108000952Y-129754285D01*
X108048571Y-129801904D01*
X108096190Y-129897142D01*
X108096190Y-130278095D01*
X107667619Y-129325714D02*
X107620000Y-129278095D01*
X107572380Y-129182857D01*
X107572380Y-128944761D01*
X107620000Y-128849523D01*
X107667619Y-128801904D01*
X107762857Y-128754285D01*
X107858095Y-128754285D01*
X108000952Y-128801904D01*
X108572380Y-129373333D01*
X108572380Y-128754285D01*
D11*
%TO.C,U1*%
X121666190Y-123364761D02*
X121666190Y-124983809D01*
X121761428Y-125174285D01*
X121856666Y-125269523D01*
X122047142Y-125364761D01*
X122428095Y-125364761D01*
X122618571Y-125269523D01*
X122713809Y-125174285D01*
X122809047Y-124983809D01*
X122809047Y-123364761D01*
X124809047Y-125364761D02*
X123666190Y-125364761D01*
X124237619Y-125364761D02*
X124237619Y-123364761D01*
X124047142Y-123650476D01*
X123856666Y-123840952D01*
X123666190Y-123936190D01*
D10*
%TO.C,C5*%
X162438333Y-110787142D02*
X162390714Y-110834761D01*
X162247857Y-110882380D01*
X162152619Y-110882380D01*
X162009761Y-110834761D01*
X161914523Y-110739523D01*
X161866904Y-110644285D01*
X161819285Y-110453809D01*
X161819285Y-110310952D01*
X161866904Y-110120476D01*
X161914523Y-110025238D01*
X162009761Y-109930000D01*
X162152619Y-109882380D01*
X162247857Y-109882380D01*
X162390714Y-109930000D01*
X162438333Y-109977619D01*
X163343095Y-109882380D02*
X162866904Y-109882380D01*
X162819285Y-110358571D01*
X162866904Y-110310952D01*
X162962142Y-110263333D01*
X163200238Y-110263333D01*
X163295476Y-110310952D01*
X163343095Y-110358571D01*
X163390714Y-110453809D01*
X163390714Y-110691904D01*
X163343095Y-110787142D01*
X163295476Y-110834761D01*
X163200238Y-110882380D01*
X162962142Y-110882380D01*
X162866904Y-110834761D01*
X162819285Y-110787142D01*
%TO.C,C2*%
X157717142Y-125816666D02*
X157764761Y-125864285D01*
X157812380Y-126007142D01*
X157812380Y-126102380D01*
X157764761Y-126245238D01*
X157669523Y-126340476D01*
X157574285Y-126388095D01*
X157383809Y-126435714D01*
X157240952Y-126435714D01*
X157050476Y-126388095D01*
X156955238Y-126340476D01*
X156860000Y-126245238D01*
X156812380Y-126102380D01*
X156812380Y-126007142D01*
X156860000Y-125864285D01*
X156907619Y-125816666D01*
X156907619Y-125435714D02*
X156860000Y-125388095D01*
X156812380Y-125292857D01*
X156812380Y-125054761D01*
X156860000Y-124959523D01*
X156907619Y-124911904D01*
X157002857Y-124864285D01*
X157098095Y-124864285D01*
X157240952Y-124911904D01*
X157812380Y-125483333D01*
X157812380Y-124864285D01*
%TO.C,Q1*%
X155172619Y-101635238D02*
X155125000Y-101730476D01*
X155029761Y-101825714D01*
X154886904Y-101968571D01*
X154839285Y-102063809D01*
X154839285Y-102159047D01*
X155077380Y-102111428D02*
X155029761Y-102206666D01*
X154934523Y-102301904D01*
X154744047Y-102349523D01*
X154410714Y-102349523D01*
X154220238Y-102301904D01*
X154125000Y-102206666D01*
X154077380Y-102111428D01*
X154077380Y-101920952D01*
X154125000Y-101825714D01*
X154220238Y-101730476D01*
X154410714Y-101682857D01*
X154744047Y-101682857D01*
X154934523Y-101730476D01*
X155029761Y-101825714D01*
X155077380Y-101920952D01*
X155077380Y-102111428D01*
X155077380Y-100730476D02*
X155077380Y-101301904D01*
X155077380Y-101016190D02*
X154077380Y-101016190D01*
X154220238Y-101111428D01*
X154315476Y-101206666D01*
X154363095Y-101301904D01*
%TO.C,C7*%
X142642142Y-70036666D02*
X142689761Y-70084285D01*
X142737380Y-70227142D01*
X142737380Y-70322380D01*
X142689761Y-70465238D01*
X142594523Y-70560476D01*
X142499285Y-70608095D01*
X142308809Y-70655714D01*
X142165952Y-70655714D01*
X141975476Y-70608095D01*
X141880238Y-70560476D01*
X141785000Y-70465238D01*
X141737380Y-70322380D01*
X141737380Y-70227142D01*
X141785000Y-70084285D01*
X141832619Y-70036666D01*
X141737380Y-69703333D02*
X141737380Y-69036666D01*
X142737380Y-69465238D01*
%TO.C,J2*%
X100041666Y-123462380D02*
X100041666Y-124176666D01*
X99994047Y-124319523D01*
X99898809Y-124414761D01*
X99755952Y-124462380D01*
X99660714Y-124462380D01*
X100470238Y-123557619D02*
X100517857Y-123510000D01*
X100613095Y-123462380D01*
X100851190Y-123462380D01*
X100946428Y-123510000D01*
X100994047Y-123557619D01*
X101041666Y-123652857D01*
X101041666Y-123748095D01*
X100994047Y-123890952D01*
X100422619Y-124462380D01*
X101041666Y-124462380D01*
%TO.C,R4*%
X149042380Y-125896666D02*
X148566190Y-126230000D01*
X149042380Y-126468095D02*
X148042380Y-126468095D01*
X148042380Y-126087142D01*
X148090000Y-125991904D01*
X148137619Y-125944285D01*
X148232857Y-125896666D01*
X148375714Y-125896666D01*
X148470952Y-125944285D01*
X148518571Y-125991904D01*
X148566190Y-126087142D01*
X148566190Y-126468095D01*
X148375714Y-125039523D02*
X149042380Y-125039523D01*
X147994761Y-125277619D02*
X148709047Y-125515714D01*
X148709047Y-124896666D01*
%TO.C,C6*%
X155932142Y-69936666D02*
X155979761Y-69984285D01*
X156027380Y-70127142D01*
X156027380Y-70222380D01*
X155979761Y-70365238D01*
X155884523Y-70460476D01*
X155789285Y-70508095D01*
X155598809Y-70555714D01*
X155455952Y-70555714D01*
X155265476Y-70508095D01*
X155170238Y-70460476D01*
X155075000Y-70365238D01*
X155027380Y-70222380D01*
X155027380Y-70127142D01*
X155075000Y-69984285D01*
X155122619Y-69936666D01*
X155027380Y-69079523D02*
X155027380Y-69270000D01*
X155075000Y-69365238D01*
X155122619Y-69412857D01*
X155265476Y-69508095D01*
X155455952Y-69555714D01*
X155836904Y-69555714D01*
X155932142Y-69508095D01*
X155979761Y-69460476D01*
X156027380Y-69365238D01*
X156027380Y-69174761D01*
X155979761Y-69079523D01*
X155932142Y-69031904D01*
X155836904Y-68984285D01*
X155598809Y-68984285D01*
X155503571Y-69031904D01*
X155455952Y-69079523D01*
X155408333Y-69174761D01*
X155408333Y-69365238D01*
X155455952Y-69460476D01*
X155503571Y-69508095D01*
X155598809Y-69555714D01*
%TO.C,J3*%
X135601666Y-87232380D02*
X135601666Y-87946666D01*
X135554047Y-88089523D01*
X135458809Y-88184761D01*
X135315952Y-88232380D01*
X135220714Y-88232380D01*
X135982619Y-87232380D02*
X136601666Y-87232380D01*
X136268333Y-87613333D01*
X136411190Y-87613333D01*
X136506428Y-87660952D01*
X136554047Y-87708571D01*
X136601666Y-87803809D01*
X136601666Y-88041904D01*
X136554047Y-88137142D01*
X136506428Y-88184761D01*
X136411190Y-88232380D01*
X136125476Y-88232380D01*
X136030238Y-88184761D01*
X135982619Y-88137142D01*
%TO.C,J1*%
X110201666Y-59042380D02*
X110201666Y-59756666D01*
X110154047Y-59899523D01*
X110058809Y-59994761D01*
X109915952Y-60042380D01*
X109820714Y-60042380D01*
X111201666Y-60042380D02*
X110630238Y-60042380D01*
X110915952Y-60042380D02*
X110915952Y-59042380D01*
X110820714Y-59185238D01*
X110725476Y-59280476D01*
X110630238Y-59328095D01*
%TO.C,R6*%
X154818333Y-117122380D02*
X154485000Y-116646190D01*
X154246904Y-117122380D02*
X154246904Y-116122380D01*
X154627857Y-116122380D01*
X154723095Y-116170000D01*
X154770714Y-116217619D01*
X154818333Y-116312857D01*
X154818333Y-116455714D01*
X154770714Y-116550952D01*
X154723095Y-116598571D01*
X154627857Y-116646190D01*
X154246904Y-116646190D01*
X155675476Y-116122380D02*
X155485000Y-116122380D01*
X155389761Y-116170000D01*
X155342142Y-116217619D01*
X155246904Y-116360476D01*
X155199285Y-116550952D01*
X155199285Y-116931904D01*
X155246904Y-117027142D01*
X155294523Y-117074761D01*
X155389761Y-117122380D01*
X155580238Y-117122380D01*
X155675476Y-117074761D01*
X155723095Y-117027142D01*
X155770714Y-116931904D01*
X155770714Y-116693809D01*
X155723095Y-116598571D01*
X155675476Y-116550952D01*
X155580238Y-116503333D01*
X155389761Y-116503333D01*
X155294523Y-116550952D01*
X155246904Y-116598571D01*
X155199285Y-116693809D01*
%TO.C,D1*%
X112257380Y-101008095D02*
X111257380Y-101008095D01*
X111257380Y-100770000D01*
X111305000Y-100627142D01*
X111400238Y-100531904D01*
X111495476Y-100484285D01*
X111685952Y-100436666D01*
X111828809Y-100436666D01*
X112019285Y-100484285D01*
X112114523Y-100531904D01*
X112209761Y-100627142D01*
X112257380Y-100770000D01*
X112257380Y-101008095D01*
X112257380Y-99484285D02*
X112257380Y-100055714D01*
X112257380Y-99770000D02*
X111257380Y-99770000D01*
X111400238Y-99865238D01*
X111495476Y-99960476D01*
X111543095Y-100055714D01*
%TO.C,U3*%
X121666190Y-83994761D02*
X121666190Y-85613809D01*
X121761428Y-85804285D01*
X121856666Y-85899523D01*
X122047142Y-85994761D01*
X122428095Y-85994761D01*
X122618571Y-85899523D01*
X122713809Y-85804285D01*
X122809047Y-85613809D01*
X122809047Y-83994761D01*
X123570952Y-83994761D02*
X124809047Y-83994761D01*
X124142380Y-84756666D01*
X124428095Y-84756666D01*
X124618571Y-84851904D01*
X124713809Y-84947142D01*
X124809047Y-85137619D01*
X124809047Y-85613809D01*
X124713809Y-85804285D01*
X124618571Y-85899523D01*
X124428095Y-85994761D01*
X123856666Y-85994761D01*
X123666190Y-85899523D01*
X123570952Y-85804285D01*
%TO.C,U2*%
X142793095Y-107552380D02*
X142793095Y-108361904D01*
X142840714Y-108457142D01*
X142888333Y-108504761D01*
X142983571Y-108552380D01*
X143174047Y-108552380D01*
X143269285Y-108504761D01*
X143316904Y-108457142D01*
X143364523Y-108361904D01*
X143364523Y-107552380D01*
X143793095Y-107647619D02*
X143840714Y-107600000D01*
X143935952Y-107552380D01*
X144174047Y-107552380D01*
X144269285Y-107600000D01*
X144316904Y-107647619D01*
X144364523Y-107742857D01*
X144364523Y-107838095D01*
X144316904Y-107980952D01*
X143745476Y-108552380D01*
X144364523Y-108552380D01*
%TO.C,J9*%
X135601666Y-63102380D02*
X135601666Y-63816666D01*
X135554047Y-63959523D01*
X135458809Y-64054761D01*
X135315952Y-64102380D01*
X135220714Y-64102380D01*
X136125476Y-64102380D02*
X136315952Y-64102380D01*
X136411190Y-64054761D01*
X136458809Y-64007142D01*
X136554047Y-63864285D01*
X136601666Y-63673809D01*
X136601666Y-63292857D01*
X136554047Y-63197619D01*
X136506428Y-63150000D01*
X136411190Y-63102380D01*
X136220714Y-63102380D01*
X136125476Y-63150000D01*
X136077857Y-63197619D01*
X136030238Y-63292857D01*
X136030238Y-63530952D01*
X136077857Y-63626190D01*
X136125476Y-63673809D01*
X136220714Y-63721428D01*
X136411190Y-63721428D01*
X136506428Y-63673809D01*
X136554047Y-63626190D01*
X136601666Y-63530952D01*
%TO.C,C4*%
X154818333Y-108247142D02*
X154770714Y-108294761D01*
X154627857Y-108342380D01*
X154532619Y-108342380D01*
X154389761Y-108294761D01*
X154294523Y-108199523D01*
X154246904Y-108104285D01*
X154199285Y-107913809D01*
X154199285Y-107770952D01*
X154246904Y-107580476D01*
X154294523Y-107485238D01*
X154389761Y-107390000D01*
X154532619Y-107342380D01*
X154627857Y-107342380D01*
X154770714Y-107390000D01*
X154818333Y-107437619D01*
X155675476Y-107675714D02*
X155675476Y-108342380D01*
X155437380Y-107294761D02*
X155199285Y-108009047D01*
X155818333Y-108009047D01*
D12*
%TO.C,R9*%
X107995000Y-113200000D02*
X107995000Y-112430000D01*
X109365000Y-105890000D02*
X106625000Y-105890000D01*
X106625000Y-112430000D02*
X109365000Y-112430000D01*
X107995000Y-105120000D02*
X107995000Y-105890000D01*
X106625000Y-105890000D02*
X106625000Y-112430000D01*
X109365000Y-112430000D02*
X109365000Y-105890000D01*
%TO.C,J4*%
X148695000Y-76715000D02*
X148695000Y-92075000D01*
X146095000Y-79315000D02*
X146095000Y-76715000D01*
X143495000Y-79315000D02*
X143495000Y-92075000D01*
X143495000Y-92075000D02*
X148695000Y-92075000D01*
X143495000Y-76715000D02*
X144825000Y-76715000D01*
X143495000Y-78045000D02*
X143495000Y-76715000D01*
X146095000Y-76715000D02*
X148695000Y-76715000D01*
X143495000Y-79315000D02*
X146095000Y-79315000D01*
%TO.C,R10*%
X161565000Y-76140000D02*
X160795000Y-76140000D01*
X153485000Y-76140000D02*
X154255000Y-76140000D01*
X154255000Y-74770000D02*
X154255000Y-77510000D01*
X160795000Y-77510000D02*
X160795000Y-74770000D01*
X154255000Y-77510000D02*
X160795000Y-77510000D01*
X160795000Y-74770000D02*
X154255000Y-74770000D01*
%TO.C,R8*%
X161565000Y-63440000D02*
X160795000Y-63440000D01*
X153485000Y-63440000D02*
X154255000Y-63440000D01*
X154255000Y-62070000D02*
X154255000Y-64810000D01*
X160795000Y-64810000D02*
X160795000Y-62070000D01*
X154255000Y-64810000D02*
X160795000Y-64810000D01*
X160795000Y-62070000D02*
X154255000Y-62070000D01*
%TO.C,J10*%
X162600000Y-68535000D02*
X162600000Y-65935000D01*
X160000000Y-73675000D02*
X165200000Y-73675000D01*
X165200000Y-65935000D02*
X165200000Y-73675000D01*
X160000000Y-65935000D02*
X161330000Y-65935000D01*
X160000000Y-68535000D02*
X160000000Y-73675000D01*
X160000000Y-68535000D02*
X162600000Y-68535000D01*
X160000000Y-67265000D02*
X160000000Y-65935000D01*
X162600000Y-65935000D02*
X165200000Y-65935000D01*
%TO.C,C1*%
X140891000Y-123849000D02*
X142515000Y-123849000D01*
X144595000Y-125170000D02*
X146744000Y-125170000D01*
X144595000Y-123569000D02*
X146005000Y-123569000D01*
X141175000Y-123489000D02*
X142515000Y-123489000D01*
X140331000Y-125490000D02*
X146779000Y-125490000D01*
X140508000Y-124609000D02*
X142515000Y-124609000D01*
X141779000Y-122969000D02*
X145331000Y-122969000D01*
X144595000Y-124329000D02*
X146489000Y-124329000D01*
X141212000Y-123449000D02*
X142515000Y-123449000D01*
X140349000Y-125290000D02*
X142515000Y-125290000D01*
X140328000Y-125530000D02*
X146782000Y-125530000D01*
X141665000Y-123049000D02*
X145445000Y-123049000D01*
X140344000Y-125330000D02*
X142515000Y-125330000D01*
X144595000Y-124409000D02*
X146525000Y-124409000D01*
X144595000Y-124889000D02*
X146686000Y-124889000D01*
X140679000Y-124209000D02*
X142515000Y-124209000D01*
X143153000Y-122449000D02*
X143957000Y-122449000D01*
X142390000Y-122649000D02*
X144720000Y-122649000D01*
X140469000Y-124729000D02*
X142515000Y-124729000D01*
X144595000Y-124929000D02*
X146696000Y-124929000D01*
X140789000Y-124009000D02*
X142515000Y-124009000D01*
X144595000Y-125210000D02*
X146750000Y-125210000D01*
X142293000Y-122689000D02*
X144817000Y-122689000D01*
X140434000Y-124849000D02*
X142515000Y-124849000D01*
X141007000Y-123689000D02*
X142515000Y-123689000D01*
X140977000Y-123729000D02*
X142515000Y-123729000D01*
X140457000Y-124769000D02*
X142515000Y-124769000D01*
X141463000Y-123209000D02*
X145647000Y-123209000D01*
X144595000Y-124369000D02*
X146507000Y-124369000D01*
X141373000Y-123289000D02*
X145737000Y-123289000D01*
X144595000Y-123809000D02*
X146191000Y-123809000D01*
X140325000Y-125610000D02*
X146785000Y-125610000D01*
X144595000Y-123489000D02*
X145935000Y-123489000D01*
X144595000Y-123609000D02*
X146039000Y-123609000D01*
X144595000Y-124849000D02*
X146676000Y-124849000D01*
X144595000Y-124969000D02*
X146705000Y-124969000D01*
X140424000Y-124889000D02*
X142515000Y-124889000D01*
X144595000Y-123689000D02*
X146103000Y-123689000D01*
X144595000Y-124769000D02*
X146653000Y-124769000D01*
X144595000Y-124609000D02*
X146602000Y-124609000D01*
X140603000Y-124369000D02*
X142515000Y-124369000D01*
X140919000Y-123809000D02*
X142515000Y-123809000D01*
X144595000Y-124449000D02*
X146541000Y-124449000D01*
X144595000Y-124649000D02*
X146616000Y-124649000D01*
X140743000Y-124089000D02*
X142515000Y-124089000D01*
X144595000Y-125010000D02*
X146714000Y-125010000D01*
X140765000Y-124049000D02*
X142515000Y-124049000D01*
X144595000Y-125370000D02*
X146770000Y-125370000D01*
X144595000Y-123929000D02*
X146271000Y-123929000D01*
X141905000Y-122889000D02*
X145205000Y-122889000D01*
X144595000Y-125290000D02*
X146761000Y-125290000D01*
X144595000Y-124489000D02*
X146557000Y-124489000D01*
X144595000Y-125090000D02*
X146730000Y-125090000D01*
X141039000Y-123649000D02*
X142515000Y-123649000D01*
X141290000Y-123369000D02*
X145820000Y-123369000D01*
X141401000Y-128875241D02*
X142031000Y-128875241D01*
X144595000Y-124209000D02*
X146431000Y-124209000D01*
X142496000Y-122609000D02*
X144614000Y-122609000D01*
X141071000Y-123609000D02*
X142515000Y-123609000D01*
X144595000Y-124049000D02*
X146345000Y-124049000D01*
X144595000Y-123449000D02*
X145898000Y-123449000D01*
X144595000Y-125410000D02*
X146773000Y-125410000D01*
X140721000Y-124129000D02*
X142515000Y-124129000D01*
X140354000Y-125250000D02*
X142515000Y-125250000D01*
X142046000Y-122809000D02*
X145064000Y-122809000D01*
X140445000Y-124809000D02*
X142515000Y-124809000D01*
X140699000Y-124169000D02*
X142515000Y-124169000D01*
X144595000Y-124249000D02*
X146451000Y-124249000D01*
X140621000Y-124329000D02*
X142515000Y-124329000D01*
X140659000Y-124249000D02*
X142515000Y-124249000D01*
X140405000Y-124969000D02*
X142515000Y-124969000D01*
X144595000Y-123529000D02*
X145971000Y-123529000D01*
X144595000Y-124569000D02*
X146588000Y-124569000D01*
X142123000Y-122769000D02*
X144987000Y-122769000D01*
X141105000Y-123569000D02*
X142515000Y-123569000D01*
X144595000Y-123649000D02*
X146071000Y-123649000D01*
X140639000Y-124289000D02*
X142515000Y-124289000D01*
X141250000Y-123409000D02*
X142515000Y-123409000D01*
X141974000Y-122849000D02*
X145136000Y-122849000D01*
X142753000Y-122529000D02*
X144357000Y-122529000D01*
X140537000Y-124529000D02*
X142515000Y-124529000D01*
X144595000Y-123729000D02*
X146133000Y-123729000D01*
X144595000Y-125330000D02*
X146766000Y-125330000D01*
X141331000Y-123329000D02*
X145779000Y-123329000D01*
X144595000Y-124689000D02*
X146629000Y-124689000D01*
X141139000Y-123529000D02*
X142515000Y-123529000D01*
X144595000Y-124529000D02*
X146573000Y-124529000D01*
X141560000Y-123129000D02*
X145550000Y-123129000D01*
X141716000Y-129190241D02*
X141716000Y-128560241D01*
X140414000Y-124929000D02*
X142515000Y-124929000D01*
X144595000Y-124129000D02*
X146389000Y-124129000D01*
X144595000Y-125050000D02*
X146722000Y-125050000D01*
X140327000Y-125570000D02*
X146783000Y-125570000D01*
X140569000Y-124449000D02*
X142515000Y-124449000D01*
X140388000Y-125050000D02*
X142515000Y-125050000D01*
X140360000Y-125210000D02*
X142515000Y-125210000D01*
X140325000Y-125690000D02*
X146785000Y-125690000D01*
X144595000Y-123969000D02*
X146297000Y-123969000D01*
X144595000Y-124809000D02*
X146665000Y-124809000D01*
X141611000Y-123089000D02*
X145499000Y-123089000D01*
X140522000Y-124569000D02*
X142515000Y-124569000D01*
X142205000Y-122729000D02*
X144905000Y-122729000D01*
X140373000Y-125130000D02*
X142515000Y-125130000D01*
X144595000Y-124289000D02*
X146471000Y-124289000D01*
X140340000Y-125370000D02*
X142515000Y-125370000D01*
X140366000Y-125170000D02*
X142515000Y-125170000D01*
X140839000Y-123929000D02*
X142515000Y-123929000D01*
X144595000Y-125250000D02*
X146756000Y-125250000D01*
X140494000Y-124649000D02*
X142515000Y-124649000D01*
X144595000Y-124729000D02*
X146641000Y-124729000D01*
X142615000Y-122569000D02*
X144495000Y-122569000D01*
X140865000Y-123889000D02*
X142515000Y-123889000D01*
X140553000Y-124489000D02*
X142515000Y-124489000D01*
X144595000Y-124089000D02*
X146367000Y-124089000D01*
X140337000Y-125410000D02*
X142515000Y-125410000D01*
X144595000Y-123849000D02*
X146219000Y-123849000D01*
X140325000Y-125650000D02*
X146785000Y-125650000D01*
X140948000Y-123769000D02*
X142515000Y-123769000D01*
X140481000Y-124689000D02*
X142515000Y-124689000D01*
X144595000Y-125130000D02*
X146737000Y-125130000D01*
X144595000Y-123769000D02*
X146162000Y-123769000D01*
X144595000Y-125450000D02*
X146777000Y-125450000D01*
X144595000Y-124169000D02*
X146411000Y-124169000D01*
X144595000Y-123409000D02*
X145860000Y-123409000D01*
X140813000Y-123969000D02*
X142515000Y-123969000D01*
X144595000Y-124009000D02*
X146321000Y-124009000D01*
X141511000Y-123169000D02*
X145599000Y-123169000D01*
X141418000Y-123249000D02*
X145692000Y-123249000D01*
X140380000Y-125090000D02*
X142515000Y-125090000D01*
X141841000Y-122929000D02*
X145269000Y-122929000D01*
X140396000Y-125010000D02*
X142515000Y-125010000D01*
X142922000Y-122489000D02*
X144188000Y-122489000D01*
X144595000Y-123889000D02*
X146245000Y-123889000D01*
X140333000Y-125450000D02*
X142515000Y-125450000D01*
X141721000Y-123009000D02*
X145389000Y-123009000D01*
X140585000Y-124409000D02*
X142515000Y-124409000D01*
X146825000Y-125690000D02*
G75*
G03*
X146825000Y-125690000I-3270000J0D01*
G01*
%TO.C,J7*%
X157604000Y-91400000D02*
X157604000Y-81280000D01*
X167525000Y-91400000D02*
X167525000Y-81280000D01*
X167025000Y-91640000D02*
X167765000Y-91640000D01*
X165465000Y-91400000D02*
X165465000Y-81280000D01*
X160564000Y-91400000D02*
X160564000Y-81280000D01*
X166965000Y-91400000D02*
X166965000Y-81280000D01*
X161590000Y-82770000D02*
X161626000Y-82805000D01*
X157604000Y-81280000D02*
X167525000Y-81280000D01*
X161796000Y-82565000D02*
X161842000Y-82612000D01*
X164104000Y-84874000D02*
X164139000Y-84909000D01*
X163888000Y-85067000D02*
X163934000Y-85114000D01*
X157604000Y-91400000D02*
X167525000Y-91400000D01*
X167765000Y-91640000D02*
X167765000Y-91140000D01*
X161330000Y-88156000D02*
G75*
G03*
X161329573Y-89523042I1534993J-684001D01*
G01*
X163549000Y-87304999D02*
G75*
G03*
X162181958Y-87304573I-684000J-1535001D01*
G01*
X164400000Y-89524000D02*
G75*
G03*
X164545253Y-88811195I-1535001J683999D01*
G01*
X162181000Y-90375000D02*
G75*
G03*
X163548042Y-90375427I684001J1534993D01*
G01*
X164545000Y-88840000D02*
G75*
G03*
X164399756Y-88156682I-1680000J0D01*
G01*
X164545000Y-83840000D02*
G75*
G03*
X164545000Y-83840000I-1680000J0D01*
G01*
%TO.C,J6*%
X158569000Y-97850000D02*
X168490000Y-97850000D01*
X158569000Y-107970000D02*
X158569000Y-97850000D01*
X168490000Y-107970000D02*
X168490000Y-97850000D01*
X166430000Y-107970000D02*
X166430000Y-97850000D01*
X165069000Y-101444000D02*
X165104000Y-101479000D01*
X162761000Y-99135000D02*
X162807000Y-99182000D01*
X168730000Y-108210000D02*
X168730000Y-107710000D01*
X162555000Y-99340000D02*
X162591000Y-99375000D01*
X167930000Y-107970000D02*
X167930000Y-97850000D01*
X167990000Y-108210000D02*
X168730000Y-108210000D01*
X164853000Y-101637000D02*
X164899000Y-101684000D01*
X158569000Y-107970000D02*
X168490000Y-107970000D01*
X161529000Y-107970000D02*
X161529000Y-97850000D01*
X165365000Y-106094000D02*
G75*
G03*
X165510253Y-105381195I-1535001J683999D01*
G01*
X163146000Y-106945000D02*
G75*
G03*
X164513042Y-106945427I684001J1534993D01*
G01*
X162295000Y-104726000D02*
G75*
G03*
X162294573Y-106093042I1534993J-684001D01*
G01*
X165510000Y-105410000D02*
G75*
G03*
X165364756Y-104726682I-1680000J0D01*
G01*
X164514000Y-103874999D02*
G75*
G03*
X163146958Y-103874573I-684000J-1535001D01*
G01*
X165510000Y-100410000D02*
G75*
G03*
X165510000Y-100410000I-1680000J0D01*
G01*
%TO.C,C3*%
X143551000Y-100926000D02*
X143551000Y-104814000D01*
X142511000Y-100036000D02*
X142511000Y-101830000D01*
X142351000Y-99954000D02*
X142351000Y-101830000D01*
X141951000Y-99796000D02*
X141951000Y-101830000D01*
X141110000Y-99643000D02*
X141110000Y-106097000D01*
X143231000Y-100565000D02*
X143231000Y-101830000D01*
X141230000Y-99652000D02*
X141230000Y-101830000D01*
X143871000Y-101438000D02*
X143871000Y-104302000D01*
X143071000Y-100420000D02*
X143071000Y-101830000D01*
X141510000Y-103910000D02*
X141510000Y-106052000D01*
X141911000Y-99784000D02*
X141911000Y-101830000D01*
X141270000Y-103910000D02*
X141270000Y-106085000D01*
X142111000Y-103910000D02*
X142111000Y-105888000D01*
X141751000Y-103910000D02*
X141751000Y-106001000D01*
X143151000Y-100490000D02*
X143151000Y-101830000D01*
X143671000Y-101094000D02*
X143671000Y-104646000D01*
X142151000Y-103910000D02*
X142151000Y-105872000D01*
X142111000Y-99852000D02*
X142111000Y-101830000D01*
X143591000Y-100980000D02*
X143591000Y-104760000D01*
X142631000Y-100104000D02*
X142631000Y-101830000D01*
X141470000Y-103910000D02*
X141470000Y-106059000D01*
X142151000Y-99868000D02*
X142151000Y-101830000D01*
X142831000Y-100234000D02*
X142831000Y-101830000D01*
X141951000Y-103910000D02*
X141951000Y-105944000D01*
X142311000Y-99936000D02*
X142311000Y-101830000D01*
X141831000Y-103910000D02*
X141831000Y-105980000D01*
X141390000Y-103910000D02*
X141390000Y-106071000D01*
X144111000Y-102068000D02*
X144111000Y-103672000D01*
X142831000Y-103910000D02*
X142831000Y-105506000D01*
X142471000Y-100014000D02*
X142471000Y-101830000D01*
X141590000Y-103910000D02*
X141590000Y-106037000D01*
X144031000Y-101811000D02*
X144031000Y-103929000D01*
X141150000Y-99646000D02*
X141150000Y-106094000D01*
X143471000Y-100826000D02*
X143471000Y-104914000D01*
X143271000Y-100605000D02*
X143271000Y-105135000D01*
X142711000Y-100154000D02*
X142711000Y-101830000D01*
X142991000Y-103910000D02*
X142991000Y-105386000D01*
X141310000Y-99659000D02*
X141310000Y-101830000D01*
X143151000Y-103910000D02*
X143151000Y-105250000D01*
X142911000Y-103910000D02*
X142911000Y-105448000D01*
X143831000Y-101361000D02*
X143831000Y-104379000D01*
X141671000Y-103910000D02*
X141671000Y-106020000D01*
X142431000Y-103910000D02*
X142431000Y-105746000D01*
X142031000Y-99823000D02*
X142031000Y-101830000D01*
X141270000Y-99655000D02*
X141270000Y-101830000D01*
X143991000Y-101705000D02*
X143991000Y-104035000D01*
X143431000Y-100778000D02*
X143431000Y-104962000D01*
X143391000Y-100733000D02*
X143391000Y-105007000D01*
X142351000Y-103910000D02*
X142351000Y-105786000D01*
X142791000Y-103910000D02*
X142791000Y-105534000D01*
X142591000Y-103910000D02*
X142591000Y-105660000D01*
X140990000Y-99640000D02*
X140990000Y-106100000D01*
X141430000Y-103910000D02*
X141430000Y-106065000D01*
X141671000Y-99720000D02*
X141671000Y-101830000D01*
X142871000Y-100263000D02*
X142871000Y-101830000D01*
X141831000Y-99760000D02*
X141831000Y-101830000D01*
X142751000Y-100180000D02*
X142751000Y-101830000D01*
X142591000Y-100080000D02*
X142591000Y-101830000D01*
X142711000Y-103910000D02*
X142711000Y-105586000D01*
X142551000Y-100058000D02*
X142551000Y-101830000D01*
X141030000Y-99640000D02*
X141030000Y-106100000D01*
X143911000Y-101520000D02*
X143911000Y-104220000D01*
X141911000Y-103910000D02*
X141911000Y-105956000D01*
X142551000Y-103910000D02*
X142551000Y-105682000D01*
X141630000Y-99711000D02*
X141630000Y-101830000D01*
X141470000Y-99681000D02*
X141470000Y-101830000D01*
X141791000Y-103910000D02*
X141791000Y-105991000D01*
X142231000Y-99900000D02*
X142231000Y-101830000D01*
X141590000Y-99703000D02*
X141590000Y-101830000D01*
X142271000Y-99918000D02*
X142271000Y-101830000D01*
X141871000Y-99772000D02*
X141871000Y-101830000D01*
X143711000Y-101156000D02*
X143711000Y-104584000D01*
X142191000Y-99884000D02*
X142191000Y-101830000D01*
X142791000Y-100206000D02*
X142791000Y-101830000D01*
X141310000Y-103910000D02*
X141310000Y-106081000D01*
X142271000Y-103910000D02*
X142271000Y-105822000D01*
X140950000Y-99640000D02*
X140950000Y-106100000D01*
X141190000Y-99648000D02*
X141190000Y-101830000D01*
X143351000Y-100688000D02*
X143351000Y-105052000D01*
X142951000Y-100322000D02*
X142951000Y-101830000D01*
X141070000Y-99642000D02*
X141070000Y-106098000D01*
X143111000Y-100454000D02*
X143111000Y-101830000D01*
X143031000Y-100386000D02*
X143031000Y-101830000D01*
X143231000Y-103910000D02*
X143231000Y-105175000D01*
X141230000Y-103910000D02*
X141230000Y-106088000D01*
X143951000Y-101608000D02*
X143951000Y-104132000D01*
X142471000Y-103910000D02*
X142471000Y-105726000D01*
X143071000Y-103910000D02*
X143071000Y-105320000D01*
X141751000Y-99739000D02*
X141751000Y-101830000D01*
X141190000Y-103910000D02*
X141190000Y-106092000D01*
X142311000Y-103910000D02*
X142311000Y-105804000D01*
X143191000Y-100527000D02*
X143191000Y-101830000D01*
X142071000Y-99837000D02*
X142071000Y-101830000D01*
X143311000Y-100646000D02*
X143311000Y-105094000D01*
X142431000Y-99994000D02*
X142431000Y-101830000D01*
X143511000Y-100875000D02*
X143511000Y-104865000D01*
X142911000Y-100292000D02*
X142911000Y-101830000D01*
X141791000Y-99749000D02*
X141791000Y-101830000D01*
X143111000Y-103910000D02*
X143111000Y-105286000D01*
X143751000Y-101220000D02*
X143751000Y-104520000D01*
X144191000Y-102468000D02*
X144191000Y-103272000D01*
X142671000Y-100128000D02*
X142671000Y-101830000D01*
X141991000Y-99809000D02*
X141991000Y-101830000D01*
X142231000Y-103910000D02*
X142231000Y-105840000D01*
X141991000Y-103910000D02*
X141991000Y-105931000D01*
X142391000Y-103910000D02*
X142391000Y-105766000D01*
X141430000Y-99675000D02*
X141430000Y-101830000D01*
X141871000Y-103910000D02*
X141871000Y-105968000D01*
X137449759Y-101031000D02*
X138079759Y-101031000D01*
X141510000Y-99688000D02*
X141510000Y-101830000D01*
X143191000Y-103910000D02*
X143191000Y-105213000D01*
X141350000Y-99664000D02*
X141350000Y-101830000D01*
X141390000Y-99669000D02*
X141390000Y-101830000D01*
X142991000Y-100354000D02*
X142991000Y-101830000D01*
X144071000Y-101930000D02*
X144071000Y-103810000D01*
X141350000Y-103910000D02*
X141350000Y-106076000D01*
X141711000Y-103910000D02*
X141711000Y-106011000D01*
X142511000Y-103910000D02*
X142511000Y-105704000D01*
X141550000Y-103910000D02*
X141550000Y-106045000D01*
X142391000Y-99974000D02*
X142391000Y-101830000D01*
X137764759Y-100716000D02*
X137764759Y-101346000D01*
X142631000Y-103910000D02*
X142631000Y-105636000D01*
X142071000Y-103910000D02*
X142071000Y-105903000D01*
X142671000Y-103910000D02*
X142671000Y-105612000D01*
X142871000Y-103910000D02*
X142871000Y-105477000D01*
X143791000Y-101289000D02*
X143791000Y-104451000D01*
X141711000Y-99729000D02*
X141711000Y-101830000D01*
X142751000Y-103910000D02*
X142751000Y-105560000D01*
X142191000Y-103910000D02*
X142191000Y-105856000D01*
X143031000Y-103910000D02*
X143031000Y-105354000D01*
X143631000Y-101036000D02*
X143631000Y-104704000D01*
X141630000Y-103910000D02*
X141630000Y-106029000D01*
X141550000Y-99695000D02*
X141550000Y-101830000D01*
X142031000Y-103910000D02*
X142031000Y-105917000D01*
X142951000Y-103910000D02*
X142951000Y-105418000D01*
X144151000Y-102237000D02*
X144151000Y-103503000D01*
X144220000Y-102870000D02*
G75*
G03*
X144220000Y-102870000I-3270000J0D01*
G01*
%TO.C,R7*%
X148095000Y-96560000D02*
X148095000Y-93820000D01*
X140785000Y-95190000D02*
X141555000Y-95190000D01*
X141555000Y-96560000D02*
X148095000Y-96560000D01*
X148865000Y-95190000D02*
X148095000Y-95190000D01*
X148095000Y-93820000D02*
X141555000Y-93820000D01*
X141555000Y-93820000D02*
X141555000Y-96560000D01*
%TO.C,D2*%
X107995000Y-95130000D02*
X110595000Y-95130000D01*
X107995000Y-97790000D02*
X110595000Y-97790000D01*
X105395000Y-97790000D02*
X105395000Y-96460000D01*
X107995000Y-97790000D02*
X107995000Y-95130000D01*
X106725000Y-97790000D02*
X105395000Y-97790000D01*
X110595000Y-97790000D02*
X110595000Y-95130000D01*
%TO.C,J5*%
X168535000Y-130770000D02*
X168535000Y-120650000D01*
X168775000Y-131010000D02*
X168775000Y-130510000D01*
X168035000Y-131010000D02*
X168775000Y-131010000D01*
X161574000Y-130770000D02*
X161574000Y-120650000D01*
X165114000Y-124244000D02*
X165149000Y-124279000D01*
X158614000Y-130770000D02*
X158614000Y-120650000D01*
X158614000Y-130770000D02*
X168535000Y-130770000D01*
X158614000Y-120650000D02*
X168535000Y-120650000D01*
X162600000Y-122140000D02*
X162636000Y-122175000D01*
X162806000Y-121935000D02*
X162852000Y-121982000D01*
X164898000Y-124437000D02*
X164944000Y-124484000D01*
X167975000Y-130770000D02*
X167975000Y-120650000D01*
X166475000Y-130770000D02*
X166475000Y-120650000D01*
X165410000Y-128894000D02*
G75*
G03*
X165555253Y-128181195I-1535001J683999D01*
G01*
X165555000Y-128210000D02*
G75*
G03*
X165409756Y-127526682I-1680000J0D01*
G01*
X164559000Y-126674999D02*
G75*
G03*
X163191958Y-126674573I-684000J-1535001D01*
G01*
X162340000Y-127526000D02*
G75*
G03*
X162339573Y-128893042I1534993J-684001D01*
G01*
X163191000Y-129745000D02*
G75*
G03*
X164558042Y-129745427I684001J1534993D01*
G01*
X165555000Y-123210000D02*
G75*
G03*
X165555000Y-123210000I-1680000J0D01*
G01*
%TO.C,J8*%
X134605000Y-74870000D02*
X137265000Y-74870000D01*
X134605000Y-74930000D02*
X137265000Y-74930000D01*
X137265000Y-74870000D02*
X137265000Y-74930000D01*
X134605000Y-73600000D02*
X134605000Y-72270000D01*
X134605000Y-74870000D02*
X134605000Y-74930000D01*
X134605000Y-72270000D02*
X135935000Y-72270000D01*
%TO.C,R3*%
X108050000Y-118650000D02*
X105310000Y-118650000D01*
X105310000Y-118650000D02*
X105310000Y-125190000D01*
X106680000Y-125960000D02*
X106680000Y-125190000D01*
X106680000Y-117880000D02*
X106680000Y-118650000D01*
X108050000Y-125190000D02*
X108050000Y-118650000D01*
X105310000Y-125190000D02*
X108050000Y-125190000D01*
%TO.C,R1*%
X137305000Y-121190000D02*
X134565000Y-121190000D01*
X134565000Y-121190000D02*
X134565000Y-127730000D01*
X135935000Y-128500000D02*
X135935000Y-127730000D01*
X135935000Y-120420000D02*
X135935000Y-121190000D01*
X134565000Y-127730000D02*
X137305000Y-127730000D01*
X137305000Y-127730000D02*
X137305000Y-121190000D01*
%TO.C,DISP1*%
X132140000Y-115630000D02*
X132140000Y-112970000D01*
X114240000Y-115630000D02*
X114240000Y-114300000D01*
X116840000Y-112970000D02*
X132140000Y-112970000D01*
X116840000Y-115630000D02*
X116840000Y-112970000D01*
X116840000Y-115630000D02*
X132140000Y-115630000D01*
X115570000Y-115630000D02*
X114240000Y-115630000D01*
%TO.C,R5*%
X147905000Y-105450000D02*
X154445000Y-105450000D01*
X147905000Y-102710000D02*
X147905000Y-105450000D01*
X155215000Y-104080000D02*
X154445000Y-104080000D01*
X154445000Y-102710000D02*
X147905000Y-102710000D01*
X147135000Y-104080000D02*
X147905000Y-104080000D01*
X154445000Y-105450000D02*
X154445000Y-102710000D01*
%TO.C,R2*%
X111860000Y-122460000D02*
X109120000Y-122460000D01*
X111860000Y-129000000D02*
X111860000Y-122460000D01*
X109120000Y-122460000D02*
X109120000Y-129000000D01*
X110490000Y-121690000D02*
X110490000Y-122460000D01*
X110490000Y-129770000D02*
X110490000Y-129000000D01*
X109120000Y-129000000D02*
X111860000Y-129000000D01*
D10*
%TO.C,U1*%
X113690000Y-117460000D02*
X132690000Y-117460000D01*
X132690000Y-117460000D02*
X132690000Y-131460000D01*
X132690000Y-131460000D02*
X113690000Y-131460000D01*
X113690000Y-131460000D02*
X113690000Y-117460000D01*
D12*
%TO.C,C5*%
X165405000Y-111082000D02*
X165405000Y-113260000D01*
X168086000Y-112950000D02*
X168086000Y-115650000D01*
X166246000Y-115340000D02*
X166246000Y-117333000D01*
X165525000Y-115340000D02*
X165525000Y-117506000D01*
X166806000Y-115340000D02*
X166806000Y-117066000D01*
X165846000Y-115340000D02*
X165846000Y-117450000D01*
X167366000Y-115340000D02*
X167366000Y-116643000D01*
X166286000Y-115340000D02*
X166286000Y-117318000D01*
X166646000Y-115340000D02*
X166646000Y-117156000D01*
X166046000Y-111202000D02*
X166046000Y-113260000D01*
X165365000Y-115340000D02*
X165365000Y-117522000D01*
X166606000Y-115340000D02*
X166606000Y-117176000D01*
X165125000Y-111070000D02*
X165125000Y-117530000D01*
X166486000Y-115340000D02*
X166486000Y-117234000D01*
X166086000Y-115340000D02*
X166086000Y-117386000D01*
X166366000Y-111314000D02*
X166366000Y-113260000D01*
X165966000Y-111179000D02*
X165966000Y-113260000D01*
X165645000Y-111111000D02*
X165645000Y-113260000D01*
X166606000Y-111424000D02*
X166606000Y-113260000D01*
X165205000Y-111070000D02*
X165205000Y-117530000D01*
X166686000Y-111466000D02*
X166686000Y-113260000D01*
X166326000Y-111298000D02*
X166326000Y-113260000D01*
X167166000Y-111784000D02*
X167166000Y-113260000D01*
X166526000Y-115340000D02*
X166526000Y-117216000D01*
X165565000Y-115340000D02*
X165565000Y-117501000D01*
X168126000Y-113038000D02*
X168126000Y-115562000D01*
X166686000Y-115340000D02*
X166686000Y-117134000D01*
X165605000Y-111105000D02*
X165605000Y-113260000D01*
X165525000Y-111094000D02*
X165525000Y-113260000D01*
X167486000Y-112076000D02*
X167486000Y-116524000D01*
X165926000Y-115340000D02*
X165926000Y-117431000D01*
X167406000Y-111995000D02*
X167406000Y-113260000D01*
X166446000Y-111348000D02*
X166446000Y-113260000D01*
X165245000Y-111072000D02*
X165245000Y-117528000D01*
X165725000Y-111125000D02*
X165725000Y-113260000D01*
X165765000Y-111133000D02*
X165765000Y-113260000D01*
X165445000Y-115340000D02*
X165445000Y-117515000D01*
X167206000Y-111816000D02*
X167206000Y-113260000D01*
X166406000Y-115340000D02*
X166406000Y-117270000D01*
X165645000Y-115340000D02*
X165645000Y-117489000D01*
X167206000Y-115340000D02*
X167206000Y-116784000D01*
X167886000Y-112586000D02*
X167886000Y-116014000D01*
X165165000Y-111070000D02*
X165165000Y-117530000D01*
X166486000Y-111366000D02*
X166486000Y-113260000D01*
X167646000Y-112256000D02*
X167646000Y-116344000D01*
X166006000Y-111190000D02*
X166006000Y-113260000D01*
X166766000Y-115340000D02*
X166766000Y-117090000D01*
X165605000Y-115340000D02*
X165605000Y-117495000D01*
X167046000Y-111693000D02*
X167046000Y-113260000D01*
X166446000Y-115340000D02*
X166446000Y-117252000D01*
X166406000Y-111330000D02*
X166406000Y-113260000D01*
X166126000Y-111226000D02*
X166126000Y-113260000D01*
X168246000Y-113360000D02*
X168246000Y-115240000D01*
X167326000Y-111920000D02*
X167326000Y-113260000D01*
X167246000Y-111850000D02*
X167246000Y-113260000D01*
X166966000Y-111636000D02*
X166966000Y-113260000D01*
X165725000Y-115340000D02*
X165725000Y-117475000D01*
X166566000Y-115340000D02*
X166566000Y-117196000D01*
X167726000Y-112356000D02*
X167726000Y-116244000D01*
X165405000Y-115340000D02*
X165405000Y-117518000D01*
X167406000Y-115340000D02*
X167406000Y-116605000D01*
X167926000Y-112650000D02*
X167926000Y-115950000D01*
X167566000Y-112163000D02*
X167566000Y-116437000D01*
X167046000Y-115340000D02*
X167046000Y-116907000D01*
X166286000Y-111282000D02*
X166286000Y-113260000D01*
X167606000Y-112208000D02*
X167606000Y-116392000D01*
X167086000Y-111722000D02*
X167086000Y-113260000D01*
X166766000Y-111510000D02*
X166766000Y-113260000D01*
X166566000Y-111404000D02*
X166566000Y-113260000D01*
X165685000Y-111118000D02*
X165685000Y-113260000D01*
X166366000Y-115340000D02*
X166366000Y-117286000D01*
X166246000Y-111267000D02*
X166246000Y-113260000D01*
X166326000Y-115340000D02*
X166326000Y-117302000D01*
X166646000Y-111444000D02*
X166646000Y-113260000D01*
X166726000Y-115340000D02*
X166726000Y-117112000D01*
X167126000Y-111752000D02*
X167126000Y-113260000D01*
X165485000Y-115340000D02*
X165485000Y-117511000D01*
X167126000Y-115340000D02*
X167126000Y-116848000D01*
X167246000Y-115340000D02*
X167246000Y-116750000D01*
X165765000Y-115340000D02*
X165765000Y-117467000D01*
X166126000Y-115340000D02*
X166126000Y-117374000D01*
X166806000Y-111534000D02*
X166806000Y-113260000D01*
X166886000Y-111584000D02*
X166886000Y-113260000D01*
X161624759Y-112461000D02*
X162254759Y-112461000D01*
X166886000Y-115340000D02*
X166886000Y-117016000D01*
X166046000Y-115340000D02*
X166046000Y-117398000D01*
X167286000Y-115340000D02*
X167286000Y-116716000D01*
X161939759Y-112146000D02*
X161939759Y-112776000D01*
X168366000Y-113898000D02*
X168366000Y-114702000D01*
X166966000Y-115340000D02*
X166966000Y-116964000D01*
X165805000Y-115340000D02*
X165805000Y-117459000D01*
X168206000Y-113241000D02*
X168206000Y-115359000D01*
X167846000Y-112524000D02*
X167846000Y-116076000D01*
X165325000Y-111076000D02*
X165325000Y-117524000D01*
X165445000Y-111085000D02*
X165445000Y-113260000D01*
X165565000Y-111099000D02*
X165565000Y-113260000D01*
X166846000Y-111558000D02*
X166846000Y-113260000D01*
X167166000Y-115340000D02*
X167166000Y-116816000D01*
X166846000Y-115340000D02*
X166846000Y-117042000D01*
X166006000Y-115340000D02*
X166006000Y-117410000D01*
X167966000Y-112719000D02*
X167966000Y-115881000D01*
X165966000Y-115340000D02*
X165966000Y-117421000D01*
X166166000Y-111239000D02*
X166166000Y-113260000D01*
X168286000Y-113498000D02*
X168286000Y-115102000D01*
X167526000Y-112118000D02*
X167526000Y-116482000D01*
X165886000Y-111159000D02*
X165886000Y-113260000D01*
X166206000Y-115340000D02*
X166206000Y-117347000D01*
X165685000Y-115340000D02*
X165685000Y-117482000D01*
X165285000Y-111073000D02*
X165285000Y-117527000D01*
X168006000Y-112791000D02*
X168006000Y-115809000D01*
X168166000Y-113135000D02*
X168166000Y-115465000D01*
X165926000Y-111169000D02*
X165926000Y-113260000D01*
X166726000Y-111488000D02*
X166726000Y-113260000D01*
X165365000Y-111078000D02*
X165365000Y-113260000D01*
X167686000Y-112305000D02*
X167686000Y-116295000D01*
X165485000Y-111089000D02*
X165485000Y-113260000D01*
X167086000Y-115340000D02*
X167086000Y-116878000D01*
X167286000Y-111884000D02*
X167286000Y-113260000D01*
X165846000Y-111150000D02*
X165846000Y-113260000D01*
X166086000Y-111214000D02*
X166086000Y-113260000D01*
X166926000Y-115340000D02*
X166926000Y-116990000D01*
X167006000Y-115340000D02*
X167006000Y-116936000D01*
X167806000Y-112466000D02*
X167806000Y-116134000D01*
X167366000Y-111957000D02*
X167366000Y-113260000D01*
X165805000Y-111141000D02*
X165805000Y-113260000D01*
X168046000Y-112868000D02*
X168046000Y-115732000D01*
X166166000Y-115340000D02*
X166166000Y-117361000D01*
X167006000Y-111664000D02*
X167006000Y-113260000D01*
X166926000Y-111610000D02*
X166926000Y-113260000D01*
X167326000Y-115340000D02*
X167326000Y-116680000D01*
X167766000Y-112410000D02*
X167766000Y-116190000D01*
X166526000Y-111384000D02*
X166526000Y-113260000D01*
X165886000Y-115340000D02*
X165886000Y-117441000D01*
X168326000Y-113667000D02*
X168326000Y-114933000D01*
X167446000Y-112035000D02*
X167446000Y-116565000D01*
X166206000Y-111253000D02*
X166206000Y-113260000D01*
X168395000Y-114300000D02*
G75*
G03*
X168395000Y-114300000I-3270000J0D01*
G01*
%TO.C,C2*%
X156360000Y-123630000D02*
X153520000Y-123630000D01*
X154940000Y-121690000D02*
X154940000Y-123630000D01*
X153520000Y-127670000D02*
X156360000Y-127670000D01*
X156360000Y-127670000D02*
X156360000Y-123630000D01*
X154940000Y-129610000D02*
X154940000Y-127670000D01*
X153520000Y-123630000D02*
X153520000Y-127670000D01*
%TO.C,Q1*%
X156835000Y-98260000D02*
X156835000Y-94660000D01*
X156107795Y-98784184D02*
G75*
G03*
X156835000Y-98260000I-1122795J2324184D01*
G01*
X156835000Y-94660000D02*
G75*
G03*
X156107795Y-94135816I-1850000J-1800000D01*
G01*
X153886193Y-94103600D02*
G75*
G03*
X152385000Y-96460000I1098807J-2356400D01*
G01*
X152385000Y-96460000D02*
G75*
G03*
X153886193Y-98816400I2600000J0D01*
G01*
%TO.C,C7*%
X141165000Y-67850000D02*
X138325000Y-67850000D01*
X138325000Y-67850000D02*
X138325000Y-71890000D01*
X139745000Y-73830000D02*
X139745000Y-71890000D01*
X138325000Y-71890000D02*
X141165000Y-71890000D01*
X141165000Y-71890000D02*
X141165000Y-67850000D01*
X139745000Y-65910000D02*
X139745000Y-67850000D01*
%TO.C,R4*%
X149760000Y-122460000D02*
X149760000Y-129000000D01*
X152500000Y-122460000D02*
X149760000Y-122460000D01*
X151130000Y-121690000D02*
X151130000Y-122460000D01*
X152500000Y-129000000D02*
X152500000Y-122460000D01*
X149760000Y-129000000D02*
X152500000Y-129000000D01*
X151130000Y-129770000D02*
X151130000Y-129000000D01*
%TO.C,C6*%
X154031000Y-71291000D02*
X152215000Y-71291000D01*
X150135000Y-70571000D02*
X148044000Y-70571000D01*
X150135000Y-71331000D02*
X148341000Y-71331000D01*
X153357000Y-72171000D02*
X148993000Y-72171000D01*
X154316000Y-70531000D02*
X152215000Y-70531000D01*
X154296000Y-70611000D02*
X152215000Y-70611000D01*
X150135000Y-71691000D02*
X148568000Y-71691000D01*
X154390000Y-70090000D02*
X152215000Y-70090000D01*
X153219000Y-72291000D02*
X149131000Y-72291000D01*
X150135000Y-71091000D02*
X148223000Y-71091000D01*
X150135000Y-71051000D02*
X148205000Y-71051000D01*
X153329000Y-66584759D02*
X152699000Y-66584759D01*
X150135000Y-71611000D02*
X148511000Y-71611000D01*
X150135000Y-70090000D02*
X147960000Y-70090000D01*
X150135000Y-71971000D02*
X148795000Y-71971000D01*
X150135000Y-71011000D02*
X148189000Y-71011000D01*
X150135000Y-70731000D02*
X148089000Y-70731000D01*
X152115000Y-72891000D02*
X150235000Y-72891000D01*
X151577000Y-73011000D02*
X150773000Y-73011000D01*
X154370000Y-70250000D02*
X152215000Y-70250000D01*
X153480000Y-72051000D02*
X152215000Y-72051000D01*
X152825000Y-72571000D02*
X149525000Y-72571000D01*
X154364000Y-70290000D02*
X152215000Y-70290000D01*
X150135000Y-70811000D02*
X148114000Y-70811000D01*
X150135000Y-71451000D02*
X148409000Y-71451000D01*
X150135000Y-70611000D02*
X148054000Y-70611000D01*
X150135000Y-70531000D02*
X148034000Y-70531000D01*
X150135000Y-70050000D02*
X147957000Y-70050000D01*
X150135000Y-71411000D02*
X148385000Y-71411000D01*
X150135000Y-70931000D02*
X148157000Y-70931000D01*
X151977000Y-72931000D02*
X150373000Y-72931000D01*
X153518000Y-72011000D02*
X152215000Y-72011000D01*
X153009000Y-72451000D02*
X149341000Y-72451000D01*
X150135000Y-71291000D02*
X148319000Y-71291000D01*
X154222000Y-70851000D02*
X152215000Y-70851000D01*
X154109000Y-71131000D02*
X152215000Y-71131000D01*
X150135000Y-70210000D02*
X147974000Y-70210000D01*
X154405000Y-69770000D02*
X147945000Y-69770000D01*
X154405000Y-69850000D02*
X147945000Y-69850000D01*
X154393000Y-70050000D02*
X152215000Y-70050000D01*
X153440000Y-72091000D02*
X148910000Y-72091000D01*
X150135000Y-71171000D02*
X148259000Y-71171000D01*
X150135000Y-70170000D02*
X147969000Y-70170000D01*
X153267000Y-72251000D02*
X149083000Y-72251000D01*
X152684000Y-72651000D02*
X149666000Y-72651000D01*
X154306000Y-70571000D02*
X152215000Y-70571000D01*
X154177000Y-70971000D02*
X152215000Y-70971000D01*
X154127000Y-71091000D02*
X152215000Y-71091000D01*
X150135000Y-70290000D02*
X147986000Y-70290000D01*
X153782000Y-71691000D02*
X152215000Y-71691000D01*
X154273000Y-70691000D02*
X152215000Y-70691000D01*
X153312000Y-72211000D02*
X149038000Y-72211000D01*
X153014000Y-66269759D02*
X153014000Y-66899759D01*
X154071000Y-71211000D02*
X152215000Y-71211000D01*
X154376000Y-70210000D02*
X152215000Y-70210000D01*
X154350000Y-70370000D02*
X152215000Y-70370000D01*
X150135000Y-71731000D02*
X148597000Y-71731000D01*
X154386000Y-70130000D02*
X152215000Y-70130000D01*
X153723000Y-71771000D02*
X152215000Y-71771000D01*
X150135000Y-70691000D02*
X148077000Y-70691000D01*
X154397000Y-70010000D02*
X152215000Y-70010000D01*
X154236000Y-70811000D02*
X152215000Y-70811000D01*
X153691000Y-71811000D02*
X152215000Y-71811000D01*
X153119000Y-72371000D02*
X149231000Y-72371000D01*
X154342000Y-70410000D02*
X152215000Y-70410000D01*
X150135000Y-70370000D02*
X148000000Y-70370000D01*
X154285000Y-70651000D02*
X152215000Y-70651000D01*
X152437000Y-72771000D02*
X149913000Y-72771000D01*
X153399000Y-72131000D02*
X148951000Y-72131000D01*
X153659000Y-71851000D02*
X152215000Y-71851000D01*
X150135000Y-71211000D02*
X148279000Y-71211000D01*
X150135000Y-71371000D02*
X148363000Y-71371000D01*
X150135000Y-71131000D02*
X148241000Y-71131000D01*
X153965000Y-71411000D02*
X152215000Y-71411000D01*
X154091000Y-71171000D02*
X152215000Y-71171000D01*
X154145000Y-71051000D02*
X152215000Y-71051000D01*
X151808000Y-72971000D02*
X150542000Y-72971000D01*
X153839000Y-71611000D02*
X152215000Y-71611000D01*
X152607000Y-72691000D02*
X149743000Y-72691000D01*
X150135000Y-70651000D02*
X148065000Y-70651000D01*
X150135000Y-70450000D02*
X148016000Y-70450000D01*
X150135000Y-72051000D02*
X148870000Y-72051000D01*
X154357000Y-70330000D02*
X152215000Y-70330000D01*
X150135000Y-70771000D02*
X148101000Y-70771000D01*
X150135000Y-71571000D02*
X148485000Y-71571000D01*
X150135000Y-70491000D02*
X148025000Y-70491000D01*
X153753000Y-71731000D02*
X152215000Y-71731000D01*
X153917000Y-71491000D02*
X152215000Y-71491000D01*
X152951000Y-72491000D02*
X149399000Y-72491000D01*
X154402000Y-69930000D02*
X147948000Y-69930000D01*
X150135000Y-70330000D02*
X147993000Y-70330000D01*
X153065000Y-72411000D02*
X149285000Y-72411000D01*
X153941000Y-71451000D02*
X152215000Y-71451000D01*
X150135000Y-72011000D02*
X148832000Y-72011000D01*
X150135000Y-70010000D02*
X147953000Y-70010000D01*
X153987000Y-71371000D02*
X152215000Y-71371000D01*
X154334000Y-70450000D02*
X152215000Y-70450000D01*
X154405000Y-69810000D02*
X147945000Y-69810000D01*
X150135000Y-70130000D02*
X147964000Y-70130000D01*
X154381000Y-70170000D02*
X152215000Y-70170000D01*
X150135000Y-71931000D02*
X148759000Y-71931000D01*
X153811000Y-71651000D02*
X152215000Y-71651000D01*
X150135000Y-71651000D02*
X148539000Y-71651000D01*
X150135000Y-71251000D02*
X148299000Y-71251000D01*
X150135000Y-71891000D02*
X148725000Y-71891000D01*
X154399000Y-69970000D02*
X147951000Y-69970000D01*
X154403000Y-69890000D02*
X147947000Y-69890000D01*
X150135000Y-71851000D02*
X148691000Y-71851000D01*
X153891000Y-71531000D02*
X152215000Y-71531000D01*
X150135000Y-71531000D02*
X148459000Y-71531000D01*
X150135000Y-71771000D02*
X148627000Y-71771000D01*
X154009000Y-71331000D02*
X152215000Y-71331000D01*
X150135000Y-71491000D02*
X148433000Y-71491000D01*
X154249000Y-70771000D02*
X152215000Y-70771000D01*
X154261000Y-70731000D02*
X152215000Y-70731000D01*
X152889000Y-72531000D02*
X149461000Y-72531000D01*
X150135000Y-70891000D02*
X148142000Y-70891000D01*
X150135000Y-70250000D02*
X147980000Y-70250000D01*
X152234000Y-72851000D02*
X150116000Y-72851000D01*
X152756000Y-72611000D02*
X149594000Y-72611000D01*
X153591000Y-71931000D02*
X152215000Y-71931000D01*
X152525000Y-72731000D02*
X149825000Y-72731000D01*
X150135000Y-70971000D02*
X148173000Y-70971000D01*
X154193000Y-70931000D02*
X152215000Y-70931000D01*
X153170000Y-72331000D02*
X149180000Y-72331000D01*
X150135000Y-71811000D02*
X148659000Y-71811000D01*
X153865000Y-71571000D02*
X152215000Y-71571000D01*
X154325000Y-70491000D02*
X152215000Y-70491000D01*
X153555000Y-71971000D02*
X152215000Y-71971000D01*
X154208000Y-70891000D02*
X152215000Y-70891000D01*
X154161000Y-71011000D02*
X152215000Y-71011000D01*
X150135000Y-70851000D02*
X148128000Y-70851000D01*
X154051000Y-71251000D02*
X152215000Y-71251000D01*
X152340000Y-72811000D02*
X150010000Y-72811000D01*
X153625000Y-71891000D02*
X152215000Y-71891000D01*
X150135000Y-70410000D02*
X148008000Y-70410000D01*
X154445000Y-69770000D02*
G75*
G03*
X154445000Y-69770000I-3270000J0D01*
G01*
%TO.C,J3*%
X134605000Y-88780000D02*
X135935000Y-88780000D01*
X134605000Y-91440000D02*
X137265000Y-91440000D01*
X134605000Y-91380000D02*
X134605000Y-91440000D01*
X134605000Y-91380000D02*
X137265000Y-91380000D01*
X134605000Y-90110000D02*
X134605000Y-88780000D01*
X137265000Y-91380000D02*
X137265000Y-91440000D01*
%TO.C,J1*%
X105350000Y-63440000D02*
X105350000Y-93980000D01*
X105350000Y-63440000D02*
X107950000Y-63440000D01*
X105350000Y-62170000D02*
X105350000Y-60840000D01*
X105350000Y-93980000D02*
X110550000Y-93980000D01*
X105350000Y-60840000D02*
X106680000Y-60840000D01*
X107950000Y-63440000D02*
X107950000Y-60840000D01*
X110550000Y-60840000D02*
X110550000Y-93980000D01*
X107950000Y-60840000D02*
X110550000Y-60840000D01*
%TO.C,R6*%
X151715000Y-112930000D02*
X151715000Y-115670000D01*
X151715000Y-115670000D02*
X158255000Y-115670000D01*
X159025000Y-114300000D02*
X158255000Y-114300000D01*
X158255000Y-115670000D02*
X158255000Y-112930000D01*
X158255000Y-112930000D02*
X151715000Y-112930000D01*
X150945000Y-114300000D02*
X151715000Y-114300000D01*
%TO.C,D1*%
X105395000Y-101600000D02*
X105395000Y-100270000D01*
X107995000Y-101600000D02*
X107995000Y-98940000D01*
X106725000Y-101600000D02*
X105395000Y-101600000D01*
X107995000Y-101600000D02*
X110595000Y-101600000D01*
X107995000Y-98940000D02*
X110595000Y-98940000D01*
X110595000Y-101600000D02*
X110595000Y-98940000D01*
%TO.C,U3*%
X115490000Y-59590000D02*
X115490000Y-110590000D01*
X113090000Y-62190000D02*
X115490000Y-62190000D01*
X133290000Y-59590000D02*
X133290000Y-110590000D01*
X113090000Y-59590000D02*
X113090000Y-110590000D01*
X130890000Y-59590000D02*
X130890000Y-110590000D01*
X112690000Y-59590000D02*
X133690000Y-59590000D01*
X133690000Y-59590000D02*
X133690000Y-110590000D01*
X133690000Y-110590000D02*
X112690000Y-110590000D01*
X112690000Y-110590000D02*
X112690000Y-59590000D01*
%TO.C,U2*%
X142555000Y-109100000D02*
X140905000Y-109100000D01*
X146205000Y-109100000D02*
X144555000Y-109100000D01*
X146205000Y-119380000D02*
X146205000Y-109100000D01*
X140905000Y-109100000D02*
X140905000Y-119380000D01*
X140905000Y-119380000D02*
X146205000Y-119380000D01*
X142555000Y-109100000D02*
G75*
G03*
X144555000Y-109100000I1000000J0D01*
G01*
%TO.C,J9*%
X134605000Y-67310000D02*
X137265000Y-67310000D01*
X134605000Y-64650000D02*
X135935000Y-64650000D01*
X137265000Y-67250000D02*
X137265000Y-67310000D01*
X134605000Y-67250000D02*
X137265000Y-67250000D01*
X134605000Y-65980000D02*
X134605000Y-64650000D01*
X134605000Y-67250000D02*
X134605000Y-67310000D01*
%TO.C,C4*%
X156925000Y-109070000D02*
X152885000Y-109070000D01*
X158865000Y-110490000D02*
X156925000Y-110490000D01*
X156925000Y-111910000D02*
X156925000Y-109070000D01*
X152885000Y-109070000D02*
X152885000Y-111910000D01*
X150945000Y-110490000D02*
X152885000Y-110490000D01*
X152885000Y-111910000D02*
X156925000Y-111910000D01*
%TD*%
M02*
