%TF.GenerationSoftware,KiCad,Pcbnew,(6.0.6)*%
%TF.CreationDate,2022-06-29T20:31:09-07:00*%
%TF.ProjectId,project_brave_heart,70726f6a-6563-4745-9f62-726176655f68,rev?*%
%TF.SameCoordinates,Original*%
%TF.FileFunction,Legend,Bot*%
%TF.FilePolarity,Positive*%
%FSLAX46Y46*%
G04 Gerber Fmt 4.6, Leading zero omitted, Abs format (unit mm)*
G04 Created by KiCad (PCBNEW (6.0.6)) date 2022-06-29 20:31:09*
%MOMM*%
%LPD*%
G01*
G04 APERTURE LIST*
%ADD10C,0.150000*%
%ADD11C,0.120000*%
G04 APERTURE END LIST*
D10*
%TO.C,MT1*%
X168997619Y-71580476D02*
X169997619Y-71580476D01*
X169283333Y-71247142D01*
X169997619Y-70913809D01*
X168997619Y-70913809D01*
X169997619Y-70580476D02*
X169997619Y-70009047D01*
X168997619Y-70294761D02*
X169997619Y-70294761D01*
X168997619Y-69151904D02*
X168997619Y-69723333D01*
X168997619Y-69437619D02*
X169997619Y-69437619D01*
X169854761Y-69532857D01*
X169759523Y-69628095D01*
X169711904Y-69723333D01*
D11*
X158619612Y-73229806D02*
G75*
G03*
X158619612Y-73229806I-2839806J0D01*
G01*
X168180000Y-72930000D02*
X163100000Y-72930000D01*
X163100000Y-72930000D02*
X163100000Y-66580000D01*
X163100000Y-66580000D02*
X168180000Y-66580000D01*
X168180000Y-66580000D02*
X168180000Y-72930000D01*
X154210000Y-67850000D02*
X155480000Y-67850000D01*
X155480000Y-67850000D02*
X155480000Y-65310000D01*
X155480000Y-65310000D02*
X154210000Y-65310000D01*
X154210000Y-65310000D02*
X154210000Y-67850000D01*
X144050000Y-72930000D02*
X149130000Y-72930000D01*
X149130000Y-72930000D02*
X149130000Y-75470000D01*
X149130000Y-75470000D02*
X144050000Y-75470000D01*
X144050000Y-75470000D02*
X144050000Y-72930000D01*
X142780000Y-62770000D02*
X150400000Y-62770000D01*
X150400000Y-62770000D02*
X150400000Y-71660000D01*
X150400000Y-71660000D02*
X142780000Y-71660000D01*
X142780000Y-71660000D02*
X142780000Y-62770000D01*
X168180000Y-79280000D02*
X133890000Y-79280000D01*
X133890000Y-79280000D02*
X133890000Y-60230000D01*
X133890000Y-60230000D02*
X168180000Y-60230000D01*
X168180000Y-60230000D02*
X168180000Y-79280000D01*
%TD*%
M02*
