M48
; DRILL file {KiCad (6.0.6)} date Wed Jun 29 20:31:12 2022
; FORMAT={-:-/ absolute / inch / decimal}
; #@! TF.CreationDate,2022-06-29T20:31:12-07:00
; #@! TF.GenerationSoftware,Kicad,Pcbnew,(6.0.6)
; #@! TF.FileFunction,Plated,1,2,PTH
FMAT,2
INCH
; #@! TA.AperFunction,Plated,PTH,ComponentDrill
T1C0.0197
; #@! TA.AperFunction,Plated,PTH,ComponentDrill
T2C0.0300
; #@! TA.AperFunction,Plated,PTH,ComponentDrill
T3C0.0315
; #@! TA.AperFunction,Plated,PTH,ComponentDrill
T4C0.0394
; #@! TA.AperFunction,Plated,PTH,ComponentDrill
T5C0.0512
; #@! TA.AperFunction,Plated,PTH,ComponentDrill
T6C0.1260
%
G90
G05
T1
X3.8573Y-5.0476
X3.885Y-4.9808
X3.885Y-5.1145
X3.9518Y-4.9531
X3.9518Y-5.1421
X4.0186Y-4.9808
X4.0186Y-5.1145
X4.0463Y-5.0476
T2
X5.3713Y-2.4213
X5.3713Y-3.0713
X6.5213Y-2.4213
X6.5213Y-3.0713
T3
X4.2Y-4.6
X4.2Y-5.0
X4.2518Y-4.0976
X4.2518Y-4.4976
X4.35Y-4.75
X4.35Y-5.15
X5.3518Y-4.7
X5.3518Y-5.1
X5.5Y-4.05
X5.5018Y-2.5539
X5.5018Y-2.9476
X5.5018Y-3.7476
X5.5018Y-4.3476
X5.5018Y-4.4476
X5.5018Y-4.5476
X5.5018Y-4.6476
X5.5984Y-4.05
X5.6518Y-4.8992
X5.6518Y-4.9976
X5.7518Y-4.0976
X5.8018Y-4.3476
X5.8018Y-4.4476
X5.8018Y-4.5476
X5.8018Y-4.6476
X5.9018Y-3.7476
X5.9018Y-4.35
X5.9018Y-4.5
X5.95Y-4.75
X5.95Y-5.15
X5.9518Y-2.6976
X5.9518Y-2.7961
X6.0018Y-2.4976
X6.0018Y-2.9976
X6.1Y-4.75
X6.1Y-5.1437
X6.1018Y-3.6976
X6.1018Y-3.7976
X6.1018Y-3.8976
X6.1518Y-4.0976
X6.2955Y-4.35
X6.3018Y-4.5
X6.4018Y-2.4976
X6.4018Y-2.9976
X6.4518Y-4.5
X6.5502Y-4.5
T4
X4.2Y-2.4476
X4.2Y-2.5476
X4.2Y-2.6476
X4.2Y-2.7476
X4.2Y-2.8476
X4.2Y-2.9476
X4.2Y-3.0476
X4.2Y-3.1476
X4.2Y-3.2476
X4.2Y-3.3476
X4.2Y-3.4476
X4.2Y-3.5476
X4.2Y-3.6476
X4.2018Y-3.7976
X4.2018Y-3.9476
X4.3Y-2.4476
X4.3Y-2.5476
X4.3Y-2.6476
X4.3Y-2.7476
X4.3Y-2.8476
X4.3Y-2.9476
X4.3Y-3.0476
X4.3Y-3.1476
X4.3Y-3.2476
X4.3Y-3.3476
X4.3Y-3.4476
X4.3Y-3.5476
X4.3Y-3.6476
X4.3018Y-3.7976
X4.3018Y-3.9476
X4.5Y-2.4
X4.5Y-2.5
X4.5Y-2.6
X4.5Y-2.7
X4.5Y-2.8
X4.5Y-2.9
X4.5Y-3.0
X4.5Y-3.1
X4.5Y-3.2
X4.5Y-3.3
X4.5Y-3.4
X4.5Y-3.5
X4.5Y-3.6
X4.5Y-3.7
X4.5Y-3.8
X4.5Y-3.9
X4.5Y-4.0
X4.5Y-4.1
X4.5Y-4.2
X4.5Y-4.3
X4.55Y-4.5
X4.55Y-4.7
X4.55Y-4.8
X4.55Y-4.9
X4.55Y-5.0
X4.55Y-5.1
X4.65Y-4.5
X4.75Y-4.5
X4.85Y-4.5
X4.95Y-4.5
X5.05Y-4.5
X5.15Y-4.5
X5.15Y-4.7
X5.15Y-4.8
X5.15Y-4.9
X5.15Y-5.0
X5.15Y-5.1
X5.2Y-2.4
X5.2Y-2.5
X5.2Y-2.6
X5.2Y-2.7
X5.2Y-2.8
X5.2Y-2.9
X5.2Y-3.0
X5.2Y-3.1
X5.2Y-3.2
X5.2Y-3.3
X5.2Y-3.4
X5.2Y-3.5
X5.2Y-3.6
X5.2Y-3.7
X5.2Y-3.8
X5.2Y-3.9
X5.2Y-4.0
X5.2Y-4.1
X5.2Y-4.2
X5.2Y-4.3
X5.3518Y-2.5976
X5.3518Y-2.8976
X5.3518Y-3.5476
X5.7018Y-3.0726
X5.7018Y-3.1726
X5.7018Y-3.2726
X5.7018Y-3.3726
X5.7018Y-3.4726
X5.7018Y-3.5726
X5.8018Y-3.0726
X5.8018Y-3.1726
X5.8018Y-3.2726
X5.8018Y-3.3726
X5.8018Y-3.4726
X5.8018Y-3.5726
X6.3516Y-2.6482
X6.3516Y-2.7482
X6.3516Y-2.8482
X6.4516Y-2.6482
X6.4516Y-2.7482
X6.4516Y-2.8482
T5
X6.412Y-3.3008
X6.412Y-3.4976
X6.45Y-3.9531
X6.45Y-4.15
X6.4518Y-4.8508
X6.4518Y-5.0476
T6
X3.9518Y-2.4976
X3.9518Y-4.4976
X3.9518Y-5.0476
X6.8518Y-2.4976
X6.8518Y-4.4976
T0
M30
